<svg id="Group_1913" data-name="Group 1913" xmlns="http://www.w3.org/2000/svg" width="199" height="103.359" viewBox="0 0 199 103.359">
  <g id="Group_1699" data-name="Group 1699" transform="translate(14.804)">
    <path id="Path_3887" data-name="Path 3887" d="M85.357,35.089c-.5.361-2.8.542-6.951.542V34.1H82.92a2.324,2.324,0,0,0,.948-.135.723.723,0,0,0,.451-.587,1.558,1.558,0,0,0-.045-.542.345.345,0,0,0-.09-.226c-.045-.045-.045-.135-.09-.135-.226-.226-.767-.316-1.76-.316H81.34a7.025,7.025,0,0,1-1.986-.226A2.029,2.029,0,0,1,78,29.853a2.705,2.705,0,0,1,.812-2.212,3.654,3.654,0,0,1,2.166-.542h4.739v1.535H81.295a1.87,1.87,0,0,0-1.038.271,1.092,1.092,0,0,0-.045,1.58,11.4,11.4,0,0,0,3.2.226h.677l.271.045.271.045a1.39,1.39,0,0,1,.542.226l.181.135.271.226a1.546,1.546,0,0,1,.406.767,5.594,5.594,0,0,1,.135,1.4A1.888,1.888,0,0,1,85.357,35.089Z" transform="translate(-78 -27.055)" fill="#00ab4e"/>
    <path id="Path_3888" data-name="Path 3888" d="M101.059,38.374a3.3,3.3,0,0,1-2.347-.812,3.154,3.154,0,0,1-.812-2.347,3.154,3.154,0,0,1,.812-2.347c.542-.542,2.121-.767,4.784-.767v1.309H101.33a2.947,2.947,0,0,0-1.083.181,1.017,1.017,0,0,0-.451.993h3.746v1.309H99.751a1.09,1.09,0,0,0,.406.993,13.257,13.257,0,0,0,3.295.181v1.309Z" transform="translate(-88.918 -29.798)" fill="#00ab4e"/>
    <path id="Path_3889" data-name="Path 3889" d="M116.717,38.374V34.628a1.8,1.8,0,0,0-.181-.9,5.4,5.4,0,0,0-2.212-.226v4.875H112.7V32.1h3.114a3.13,3.13,0,0,1,1.941.5c.451.361.722,2.3.722,5.777Z" transform="translate(-97.038 -29.798)" fill="#00ab4e"/>
    <path id="Path_3890" data-name="Path 3890" d="M130.469,35.576h-.5c-.09,0-.135-.045-.181-.045s-.09,0-.09-.045a2.919,2.919,0,0,1-.587-.181l-.361-.181-.181-.135a3.953,3.953,0,0,1-.858-1.083A2.926,2.926,0,0,1,127.4,32.6a9.611,9.611,0,0,1,.09-1.219,2.31,2.31,0,0,1,.451-.948,2.512,2.512,0,0,1,1.173-.9c.045,0,.09-.045.181-.045.045,0,.135-.045.181-.045l.316-.09a.881.881,0,0,0,.316-.045h1.941V27h1.67v8.576ZM132,30.656h-1.625a.728.728,0,0,0-.406.135c-.09.045-.181.135-.316.226a1.242,1.242,0,0,0-.361.677,4.241,4.241,0,0,0-.09,1.174,1.253,1.253,0,0,0,.5,1.083,2.38,2.38,0,0,0,1.4.316h.993V30.656Z" transform="translate(-105.103 -27)" fill="#00ab4e"/>
    <path id="Path_3891" data-name="Path 3891" d="M158.116,35.576l-3.656-6.454.09,6.454H152.7V27H155l3.475,6.183L158.387,27h1.805v8.576Z" transform="translate(-118.984 -27)" fill="#00ab4e"/>
    <path id="Path_3892" data-name="Path 3892" d="M177.532,37.4a3.164,3.164,0,0,1-2.392.9,3.27,3.27,0,0,1-2.392-.9,3.094,3.094,0,0,1-.948-2.347,3.027,3.027,0,0,1,.948-2.347,2.744,2.744,0,0,1,1.083-.677,3.852,3.852,0,0,1,1.354-.226,3.27,3.27,0,0,1,2.392.9,3.128,3.128,0,0,1,.9,2.347A3.028,3.028,0,0,1,177.532,37.4Zm-1.174-3.656a1.4,1.4,0,0,0-1.173-.542,1.456,1.456,0,0,0-1.219.587,2.1,2.1,0,0,0-.406,1.354,2.388,2.388,0,0,0,.406,1.354,1.288,1.288,0,0,0,1.174.542,1.456,1.456,0,0,0,1.219-.587,2.1,2.1,0,0,0,.406-1.354A2.527,2.527,0,0,0,176.359,33.741Z" transform="translate(-129.463 -29.634)" fill="#00ab4e"/>
    <path id="Path_3893" data-name="Path 3893" d="M195.476,38.374h-1.9l-1.354-4.288-1.354,4.288h-1.805L186.9,32.1h1.715l1.354,4.378,1.354-4.378h1.76l1.4,4.378,1.354-4.378h1.715Z" transform="translate(-137.748 -29.798)" fill="#00ab4e"/>
  </g>
  <g id="Group_1700" data-name="Group 1700" transform="translate(121.277 94.693)">
    <path id="Path_3894" data-name="Path 3894" d="M319.677,245.33l-1.9-3.34h-2.076v3.34H313.9V236.8h4.829l.316.045.271.045h.135a1.783,1.783,0,0,1,.271.09,1.8,1.8,0,0,1,1.174.9,3.347,3.347,0,0,1,.361,1.535,2.625,2.625,0,0,1-.406,1.489,2.169,2.169,0,0,1-1.309.858l2.076,3.566Zm-.451-6.725a2.256,2.256,0,0,0-1.309-.271h-2.212V240.5h2.212a2.257,2.257,0,0,0,1.309-.271.966.966,0,0,0,.316-.812A1.345,1.345,0,0,0,319.226,238.605Z" transform="translate(-313.9 -236.8)" fill="#00ab4e"/>
    <path id="Path_3895" data-name="Path 3895" d="M335.614,248.129a3.113,3.113,0,0,1-2.3-.812,3.154,3.154,0,0,1-.812-2.347,3.044,3.044,0,0,1,.812-2.3c.542-.542,2.121-.767,4.739-.767v1.309h-2.166a2.23,2.23,0,0,0-1.083.181,1.109,1.109,0,0,0-.451.993h3.7v1.309h-3.7a1.089,1.089,0,0,0,.406.993,13.256,13.256,0,0,0,3.295.181v1.309h-2.437Z" transform="translate(-324.105 -239.598)" fill="#00ab4e"/>
    <path id="Path_3896" data-name="Path 3896" d="M349.595,248.074l-.677-.045a.572.572,0,0,1-.271-.045l-.361-.09a2.479,2.479,0,0,1-1.489-1.128,3.067,3.067,0,0,1-.5-1.76,3.786,3.786,0,0,1,.5-1.851,2.255,2.255,0,0,1,1.219-1.128,20.064,20.064,0,0,1,3.791-.226v1.354h-1.715a2.5,2.5,0,0,0-1.535.316,1.771,1.771,0,0,0-.5,1.489,1.854,1.854,0,0,0,.5,1.444,8.073,8.073,0,0,0,3.25.361v1.354h-2.212Z" transform="translate(-331.676 -239.543)" fill="#00ab4e"/>
    <path id="Path_3897" data-name="Path 3897" d="M363.314,248.129a3.113,3.113,0,0,1-2.3-.812,3.154,3.154,0,0,1-.812-2.347,3.044,3.044,0,0,1,.812-2.3c.542-.542,2.121-.767,4.739-.767v1.309h-2.166a2.229,2.229,0,0,0-1.083.181,1.108,1.108,0,0,0-.451.993h3.7v1.309h-3.7a1.09,1.09,0,0,0,.406.993,13.257,13.257,0,0,0,3.295.181v1.309h-2.437Z" transform="translate(-339.303 -239.598)" fill="#00ab4e"/>
    <path id="Path_3898" data-name="Path 3898" d="M374.8,238.435V236.9h1.715v1.535Zm0,6.951v-6.229h1.715v6.229Z" transform="translate(-347.313 -236.855)" fill="#00ab4e"/>
    <path id="Path_3899" data-name="Path 3899" d="M384.623,248.129h-1.76L380.2,241.9h1.805l1.76,4.423,1.805-4.423h1.76Z" transform="translate(-350.276 -239.598)" fill="#00ab4e"/>
    <path id="Path_3900" data-name="Path 3900" d="M400.114,248.129a3.113,3.113,0,0,1-2.3-.812,3.154,3.154,0,0,1-.812-2.347,3.044,3.044,0,0,1,.812-2.3c.542-.542,2.121-.767,4.739-.767v1.309h-2.166a2.229,2.229,0,0,0-1.083.181,1.108,1.108,0,0,0-.451.993h3.7v1.309h-3.746a1.09,1.09,0,0,0,.406.993,13.256,13.256,0,0,0,3.295.181v1.309h-2.392Z" transform="translate(-359.493 -239.598)" fill="#00ab4e"/>
    <path id="Path_3901" data-name="Path 3901" d="M425.116,245.33l-3.656-6.454.09,6.454H419.7V236.8h2.257l3.475,6.138-.09-6.138h1.805v8.53Z" transform="translate(-371.947 -236.8)" fill="#00ab4e"/>
    <path id="Path_3902" data-name="Path 3902" d="M444.587,247.2a3.621,3.621,0,0,1-4.784,0,3.062,3.062,0,0,1-.9-2.347,3.162,3.162,0,0,1,.9-2.347,2.744,2.744,0,0,1,1.083-.677,3.772,3.772,0,0,1,1.309-.226,3.269,3.269,0,0,1,2.392.9,3.235,3.235,0,0,1,.9,2.347A3.128,3.128,0,0,1,444.587,247.2Zm-1.219-3.656a1.4,1.4,0,0,0-1.173-.542,1.456,1.456,0,0,0-1.219.587,2.06,2.06,0,0,0-.406,1.309,2.151,2.151,0,0,0,.406,1.309,1.4,1.4,0,0,0,1.174.542,1.455,1.455,0,0,0,1.219-.587,2.312,2.312,0,0,0,0-2.618Z" transform="translate(-382.481 -239.434)" fill="#00ab4e"/>
    <path id="Path_3903" data-name="Path 3903" d="M462.385,248.129h-1.85l-1.354-4.243-1.309,4.243h-1.805L453.9,241.9h1.715l1.354,4.378,1.354-4.378h1.76l1.4,4.378,1.354-4.378h1.715Z" transform="translate(-390.711 -239.598)" fill="#00ab4e"/>
  </g>
  <g id="Group_1701" data-name="Group 1701" transform="translate(0 14.443)">
    <path id="Path_3904" data-name="Path 3904" d="M67.045,113.884A27.171,27.171,0,1,1,100.987,87.57v.542l1.444.045v-.542a28.616,28.616,0,1,0-35.747,27.713Z" transform="translate(-45.2 -59)" fill="#00ab4e"/>
    <path id="Path_3905" data-name="Path 3905" d="M85.059,63.6h0c-.135.226-12.186,24.779-36.153,17.919l-.406,1.4c13.179,3.746,22.748-1.535,28.525-6.68a42.366,42.366,0,0,0,9.343-12.051Z" transform="translate(-47.011 -61.524)" fill="#00ab4e"/>
    <path id="Path_3906" data-name="Path 3906" d="M102.9,94.6,52.3,119.469l.632,1.309,50.6-24.869Z" transform="translate(-49.095 -78.532)" fill="#00ab4e"/>
    <path id="Path_3907" data-name="Path 3907" d="M80.1,65.832l18.686,38.635,1.309-.632L81.409,65.2Z" transform="translate(-64.348 -62.402)" fill="#00ab4e"/>
    <path id="Path_3908" data-name="Path 3908" d="M104.446,97.463c.316-10.607-4.559-19.273-14.037-25.14A45.808,45.808,0,0,0,75.921,66.59l-.5-.09-.271.451a45.184,45.184,0,0,0-5.1,15.526c-1.038,8.034.271,19.273,12.186,27.352l.812-1.219c-21.665-14.669-7.312-39.854-6.68-40.937l-.767.361c.361.045,28.119,5.1,27.4,29.383Z" transform="translate(-58.679 -63.115)" fill="#00ab4e"/>
  </g>
  <path id="Path_3909" data-name="Path 3909" d="M109.476,169.856s-12.638-19.137,12.1-30.15c23.335-10.381,19.9-23.606,19.9-23.606s11.961,17.377-6.138,27.758c-18.054,10.336-24.6,14.172-25.862,26" transform="translate(-78.694 -75.885)" fill="#00ab4e"/>
  <path id="Path_3910" data-name="Path 3910" d="M90.738,139.719s-13.676-19.95,12.367-32C126.846,97.969,124.228,83.3,124.228,83.3s14.985,19.543-12.051,32.5c-23.425,11.193-21.439,23.922-21.439,23.922" transform="translate(-68.215 -57.889)" fill="#d9242a"/>
  <path id="Path_3911" data-name="Path 3911" d="M89.188,139.38a1.265,1.265,0,0,1-1.038-.542c-.226-.361-5.687-8.44-3.159-17.738,1.805-6.635,7.222-12.051,16.023-16.113,22.477-9.208,20.491-22.522,20.4-23.064a1.3,1.3,0,0,1,.722-1.354,1.249,1.249,0,0,1,1.489.361c.271.316,6.138,8.124,3.882,17.422-1.625,6.815-7.131,12.5-16.384,16.926C88.962,125.885,90.361,137.8,90.361,137.891a1.163,1.163,0,0,1-.767,1.309.49.49,0,0,1-.406.181m34.528-53.3c-.993,5.416-5.281,14.488-21.71,21.213-8.034,3.7-13,8.576-14.624,14.443a19.082,19.082,0,0,0,.993,12.1c1.309-4.965,5.958-13.225,21.71-20.762,8.531-4.062,13.586-9.208,15.03-15.256a18.148,18.148,0,0,0-1.4-11.735" transform="translate(-66.665 -56.332)" fill="#00ab4e"/>
  <path id="Path_3912" data-name="Path 3912" d="M90.738,139.719s-13.676-19.95,12.367-32C126.846,97.969,124.228,83.3,124.228,83.3s14.985,19.543-12.051,32.5c-23.425,11.193-21.439,23.922-21.439,23.922" transform="translate(-68.215 -57.889)" fill="#d9242a"/>
  <path id="Path_3913" data-name="Path 3913" d="M131.97,134.14s-5.6-.767-4.92,4.513l5.236-3.069-.045,1.038-5.01,2.8a5.36,5.36,0,0,0,.451.812l4.784-2.843-.045,1.038-4.107,2.347a2.7,2.7,0,0,0,1.309.767c1.489.406,3.927.181,5.01-2.934l.587.948s-1.444,3.295-4.829,3.114a4.237,4.237,0,0,1-2.934-1.444l-1.444.9.045-1.128.767-.5-.451-.677-1.174.812.045-1.083.9-.5s-.9-3.34,1.805-5.01a4.948,4.948,0,0,1,4.062-.722Z" transform="translate(-89.092 -85.259)" fill="#fff" fill-rule="evenodd"/>
  <g id="Group_1702" data-name="Group 1702" transform="translate(45.209 61.877)">
    <path id="Path_3914" data-name="Path 3914" d="M148.72,164.1a3.418,3.418,0,0,0-2.753,1.489c-1.309,1.625-.5,3.791,2.528,3.43,3.024-.542,3.114.9,2.979,1.9s-1.851,1.58-2.843,1.444l.045.9a3.966,3.966,0,0,0,3.611-1.715c1.444-2.031-.9-3.791-2.257-3.7-1.354.045-3.746.632-3.475-.993s2.392-1.986,2.392-1.986Z" transform="translate(-145.364 -164.094)" fill="#fff" fill-rule="evenodd"/>
    <path id="Path_3915" data-name="Path 3915" d="M145.8,165.616l5.326,8.531.451-.271-5.236-8.576Z" transform="translate(-145.603 -164.756)" fill="#fff" fill-rule="evenodd"/>
    <path id="Path_3916" data-name="Path 3916" d="M147.6,164.571l5.281,8.576.451-.271L148.1,164.3Z" transform="translate(-146.591 -164.207)" fill="#fff" fill-rule="evenodd"/>
  </g>
  <g id="Group_1704" data-name="Group 1704" transform="translate(78.174 16.474)">
    <path id="Path_3917" data-name="Path 3917" d="M246.068,107.055,227.427,74.2l.361,32.858H218.4V63.5h11.645l17.738,31.369L247.422,63.5h9.162v43.555Z" transform="translate(-218.4 -63.5)" fill="#00ab4e"/>
    <path id="Path_3918" data-name="Path 3918" d="M341.611,107.165l-3.882-.181-1.4-.045a3.648,3.648,0,0,1-1.128-.181,2.411,2.411,0,0,1-.5-.181,4.684,4.684,0,0,1-.542-.135,15.4,15.4,0,0,1-9.93-7.673,19.142,19.142,0,0,1-2.166-5.326,20.5,20.5,0,0,1-.767-5.868,45.789,45.789,0,0,1,.948-10.11,18.672,18.672,0,0,1,3.25-7.312,13.918,13.918,0,0,1,6.68-4.965,29.208,29.208,0,0,1,4.649-1.128c1.76-.226,8.485-.361,20.175-.361v7.583h-15.03q-10.291,0-10.291,10.155v7.583a20.061,20.061,0,0,0,.406,4.378,10.545,10.545,0,0,0,.542,1.805,6.109,6.109,0,0,0,1.038,1.535l1.625,1.58a5.989,5.989,0,0,0,1.941.948,8.372,8.372,0,0,0,2.257.361L357,99.673v7.492Z" transform="translate(-274.856 -63.61)" fill="#00ab4e"/>
    <path id="Path_3919" data-name="Path 3919" d="M427.356,107.165l-3.882-.181-1.4-.045a3.648,3.648,0,0,1-1.128-.181,2.41,2.41,0,0,1-.5-.181,4.686,4.686,0,0,1-.542-.135,15.4,15.4,0,0,1-9.93-7.673A22.069,22.069,0,0,1,407,87.622a45.943,45.943,0,0,1,.948-10.155,18.674,18.674,0,0,1,3.25-7.312,13.918,13.918,0,0,1,6.68-4.965,25.785,25.785,0,0,1,4.649-1.128c1.715-.226,8.4-.361,20.175-.361v7.357h-15.03a9.742,9.742,0,0,0-6.951,2.437,11.373,11.373,0,0,0-2.888,5.642,33.049,33.049,0,0,0-.858,7.673,22.653,22.653,0,0,0,1.083,7.4,7.535,7.535,0,0,0,5.1,5.01l.948.226,1.083.045,17.512.045v7.628Z" transform="translate(-321.875 -63.61)" fill="#00ab4e"/>
    <path id="Path_3920" data-name="Path 3920" d="M310.964,102l-1.264,3.114h34.8L345.763,102Z" transform="translate(-268.492 -84.623)" fill="#00ab4e"/>
    <path id="Path_3921" data-name="Path 3921" d="M308.6,117.714h32.136L342,114.6H309.864Z" transform="translate(-267.888 -91.536)" fill="#00ab4e"/>
  </g>
  <path id="Path_3923" data-name="Path 3923" d="M448.023,168.7l-5.461,8.4-5.461-8.4H432l8.26,12.277v9.659h4.694v-9.659l8.4-12.277Z" transform="translate(-257.418 -104.744)" fill="#d9242a"/>
  <path id="Path_3925" data-name="Path 3925" d="M406.448,177.637h-7.267c0-3.43,1.715-5.145,5.19-5.145h4.243l-2.166-3.2-.406-.587c-2.3.045-3.746.09-4.288.135a11.661,11.661,0,0,0-2.347.587,6.586,6.586,0,0,0-3.34,2.528,10.314,10.314,0,0,0-1.67,3.7,23.194,23.194,0,0,0-.5,5.1,10.791,10.791,0,0,0,.406,2.979,10.3,10.3,0,0,0,1.083,2.708,7.832,7.832,0,0,0,5.01,3.882,1.6,1.6,0,0,0,.271.045,1.9,1.9,0,0,0,.226.09,3.107,3.107,0,0,0,.587.09l.722.045,1.941.09h10.426v-3.836H403.062a3.457,3.457,0,0,1-1.128-.181,2.925,2.925,0,0,1-.993-.5l-.812-.812a6.147,6.147,0,0,1-.542-.767,3,3,0,0,1-.271-.9,9.81,9.81,0,0,1-.226-2.212h15.436l-2.573-3.791h-5.506Z" transform="translate(-236.515 -104.744)" fill="#d9242a"/>
  <path id="Path_3927" data-name="Path 3927" d="M234.367,185.535l-5.6-16.835H222v21.936h4.739l-.5-17.2,5.777,17.2h4.875l5.6-17.061-.361,17.061h4.559V168.7h-6.725Z" transform="translate(-142.202 -104.744)" fill="#d9242a"/>
  <path id="Path_3929" data-name="Path 3929" d="M357.624,168.7l.181,15.8-8.937-15.8H343v21.936h4.739l-.181-16.565,9.388,16.565h5.326V168.7Z" transform="translate(-208.588 -104.744)" fill="#d9242a"/>
  <path id="Path_3930" data-name="Path 3930" d="M296.011,168.4c-7.086,0-11.1,4.6-11.013,11.329.09,6.68,4.513,10.832,10.968,10.832s11.419-3.475,11.419-10.878C307.43,172.282,302.917,168.4,296.011,168.4Zm.181,18.235c-3.521,0-5.416-3.159-5.416-6.68s.993-7.492,5.732-7.492c3.972,0,5.1,3.927,5.1,7.447C301.608,183.385,299.712,186.635,296.192,186.635Z" transform="translate(-176.765 -104.579)" fill="#da2229"/>
  <g id="XMLID_81_" transform="translate(108.232 63.821)">
    <path id="Path_3932" data-name="Path 3932" d="M296.011,168.4c-7.086,0-11.1,4.6-11.013,11.329.09,6.68,4.513,10.832,10.968,10.832s11.419-3.475,11.419-10.878C307.43,172.282,302.917,168.4,296.011,168.4Zm.181,18.235c-3.521,0-5.416-3.159-5.416-6.68s.993-7.492,5.732-7.492c3.972,0,5.1,3.927,5.1,7.447C301.608,183.385,299.712,186.635,296.192,186.635Z" transform="translate(-284.997 -168.4)" fill="#da2229"/>
  </g>
</svg>
