<svg xmlns="http://www.w3.org/2000/svg" xmlns:xlink="http://www.w3.org/1999/xlink" width="42.019" height="34.927" viewBox="0 0 42.019 34.927">
  <defs>
    <radialGradient id="radial-gradient" cx="0.5" cy="0.5" r="0.464" gradientTransform="translate(4.295 -0.482) scale(1.091 1.067)" gradientUnits="objectBoundingBox">
      <stop offset="0.391" stop-color="#fff"/>
      <stop offset="0.487" stop-color="#c1cbde"/>
      <stop offset="0.588" stop-color="#899abf"/>
      <stop offset="0.686" stop-color="#5972a5"/>
      <stop offset="0.778" stop-color="#345291"/>
      <stop offset="0.864" stop-color="#1a3c83"/>
      <stop offset="0.94" stop-color="#0a2e7b"/>
      <stop offset="1" stop-color="#052a78"/>
    </radialGradient>
  </defs>
  <g id="Group_1639" data-name="Group 1639" transform="translate(-491.173 -1753.845)">
    <path id="Path_3852" data-name="Path 3852" d="M519.548,1780.8c.549.609-.156,3.056-.466,3.752a2.927,2.927,0,0,1-.627.918,8.522,8.522,0,0,1-1.937,1.365c-3.547,1.946-5.818.825-9.187-.582a24.268,24.268,0,0,1-8.888-6.748,25.975,25.975,0,0,1-5.965-9.743c-1.184-3.647-2.143-6.111-.179-9.813a9.161,9.161,0,0,1,1.357-2.01,2.747,2.747,0,0,1,.886-.632c.665-.3,2.984-.955,3.533-.347.388.431,2.241,4.391,2.7,5.3.3.55.93,1.32.9,1.971a1.919,1.919,0,0,1-.632,1.129c-.79.809-1.757,1.422-2.546,2.231a1.959,1.959,0,0,0-.612,1.006,5.124,5.124,0,0,0,.755,1.916,22.758,22.758,0,0,0,3.495,5.208,21.58,21.58,0,0,0,4.739,3.934c.423.255,1.284.924,1.763.88a1.792,1.792,0,0,0,.967-.612c.79-.809,1.4-1.816,2.191-2.625a1.743,1.743,0,0,1,1.084-.627c.61-.005,1.3.695,1.809,1.04C515.526,1778.231,519.161,1780.366,519.548,1780.8Z" transform="translate(0 0.898)" fill="url(#radial-gradient)"/>
    <g id="Group_1621" data-name="Group 1621" transform="translate(512.728 1753.845)">
      <path id="Path_3853" data-name="Path 3853" d="M521.536,1773.138c.938,0,1.854,0,2.771,0a.18.18,0,0,0,.129-.078c.361-.569.734-1.129,1.069-1.714a16.829,16.829,0,0,0,1.983-5.128,11.075,11.075,0,0,0-.005-4.567,9.091,9.091,0,0,0-2.375-4.444,10.46,10.46,0,0,0-5.95-3.044,11.845,11.845,0,0,0-3.147-.094,12.512,12.512,0,0,0-3.688.95,13.844,13.844,0,0,0-3.826,2.461c-.171.153-.335.318-.528.5a2.981,2.981,0,0,1,.318,0,.453.453,0,0,0,.348-.12,16.6,16.6,0,0,1,2.01-1.384,13.1,13.1,0,0,1,5.506-1.842,9.756,9.756,0,0,1,3.756.378,8.549,8.549,0,0,1,6.127,7.628,10.383,10.383,0,0,1-.432,3.819,15.684,15.684,0,0,1-3.069,5.527C522.214,1772.373,521.879,1772.743,521.536,1773.138Z" transform="translate(-507.457 -1753.795)" fill="#fff"/>
      <path id="Path_3854" data-name="Path 3854" d="M522.642,1773.4h-1.429l.3-.349.325-.371c.233-.264.452-.514.667-.775a15.464,15.464,0,0,0,3.03-5.452,10.09,10.09,0,0,0,.423-3.738,8.345,8.345,0,0,0-5.986-7.447,9.615,9.615,0,0,0-3.687-.37,12.777,12.777,0,0,0-5.429,1.817,16.451,16.451,0,0,0-1.987,1.368.641.641,0,0,1-.485.159,1.242,1.242,0,0,0-.175,0h-.635l.561-.536c.122-.118.237-.227.353-.334a14.115,14.115,0,0,1,3.88-2.494,12.722,12.722,0,0,1,3.74-.963,12.066,12.066,0,0,1,3.2.094,10.6,10.6,0,0,1,6.057,3.1,9.325,9.325,0,0,1,2.428,4.543,11.183,11.183,0,0,1,.006,4.657,16.923,16.923,0,0,1-2.007,5.2c-.252.44-.529.872-.8,1.289l-.277.432a.368.368,0,0,1-.289.171C523.837,1773.4,523.243,1773.4,522.642,1773.4Zm-.535-.415h.047c.758,0,1.5,0,2.251,0l.269-.422c.264-.413.539-.84.786-1.271a16.51,16.51,0,0,0,1.958-5.064,10.743,10.743,0,0,0,0-4.476,8.911,8.911,0,0,0-2.32-4.341,10.22,10.22,0,0,0-5.846-2.989,11.725,11.725,0,0,0-3.1-.092,12.38,12.38,0,0,0-3.633.936,13.6,13.6,0,0,0-3.533,2.218,17.058,17.058,0,0,1,1.688-1.131,13.159,13.159,0,0,1,5.585-1.866,9.958,9.958,0,0,1,3.826.385,8.756,8.756,0,0,1,6.267,7.811,10.681,10.681,0,0,1-.441,3.9,15.888,15.888,0,0,1-3.107,5.6c-.219.267-.442.519-.677.786Z" transform="translate(-507.579 -1753.845)" fill="#fff"/>
    </g>
    <g id="Group_1622" data-name="Group 1622" transform="translate(524.926 1758.972)">
      <path id="Path_3855" data-name="Path 3855" d="M520.779,1758.7c-.043-.25-.089-.477-.122-.708-.025-.171-.079-.188-.169-.152q-1.09.426-2.182.844c-.424.164-.85.33-1.276.488-.079.029-.11.068-.08.21.047.225.085.455.131.7Z" transform="translate(-516.84 -1757.722)" fill="#fff"/>
      <path id="Path_3856" data-name="Path 3856" d="M517.03,1760.246l-.062-.339c-.03-.163-.059-.321-.092-.476-.025-.121-.031-.267.145-.332.347-.127.692-.261,1.038-.4l.6-.233c.606-.233,1.21-.465,1.815-.7a.2.2,0,0,1,.188,0,.314.314,0,0,1,.11.231c.022.16.051.318.081.482l.055.31Zm.027-.937a.27.27,0,0,0,.009.077c.033.156.062.316.092.482l.02.1,3.512-1.313-.024-.133c-.032-.168-.06-.329-.084-.493a.348.348,0,0,0-.017-.078l-.021.009q-.906.353-1.814.7l-.6.233c-.347.134-.694.268-1.042.4A.088.088,0,0,0,517.057,1759.309Z" transform="translate(-516.863 -1757.747)" fill="#fff"/>
    </g>
    <g id="Group_1623" data-name="Group 1623" transform="translate(521.597 1755.416)">
      <path id="Path_3857" data-name="Path 3857" d="M514.579,1757.29c.12.058.208.1.292.143a.168.168,0,0,0,.24-.042c.487-.54.984-1.071,1.477-1.607.122-.133.239-.271.373-.424-.075-.041-.129-.066-.177-.1-.168-.109-.289-.073-.43.084-.444.5-.908.989-1.364,1.483C514.86,1756.972,514.733,1757.118,514.579,1757.29Z" transform="translate(-514.25 -1754.991)" fill="#fff"/>
      <path id="Path_3858" data-name="Path 3858" d="M515.057,1757.724a.412.412,0,0,1-.2-.055c-.054-.029-.109-.055-.173-.087l-.359-.175.328-.369c.1-.108.183-.206.272-.3l.43-.461c.309-.331.628-.674.932-1.018a.467.467,0,0,1,.673-.119c.028.017.057.033.092.051l.3.165-.3.346c-.085.1-.166.192-.248.282l-.5.539c-.327.354-.654.708-.977,1.066A.365.365,0,0,1,515.057,1757.724Zm-.07-.452.05.026.008,0,0-.005c.324-.359.653-.715.981-1.07l.5-.539c.066-.071.13-.145.2-.221-.042-.022-.072-.013-.147.071-.309.349-.629.694-.941,1.027l-.427.46C515.134,1757.105,515.063,1757.187,514.987,1757.272Z" transform="translate(-514.329 -1755.041)" fill="#fff"/>
    </g>
    <g id="Group_1624" data-name="Group 1624" transform="translate(517.883 1756.113)">
      <path id="Path_3859" data-name="Path 3859" d="M512.256,1755.618c-.205.042-.352.078-.5.1-.169.026-.216.079-.211.176.013.273.005.548.005.821v.443c.631-.067.711-.121.711-.451v-1.089Z" transform="translate(-511.491 -1755.556)" fill="#fff"/>
      <path id="Path_3860" data-name="Path 3860" d="M511.508,1757.229v-.5c0-.078,0-.155,0-.233,0-.192,0-.392-.007-.586-.008-.168.124-.21.254-.23.1-.014.2-.036.318-.061l.184-.039.058-.01v1.151c0,.382-.143.436-.754.5Zm.711-1.533-.126.026c-.118.025-.219.047-.323.063-.173.025-.171.076-.169.121.011.2.008.4.007.592,0,.078,0,.154,0,.231v.385c.594-.067.614-.125.614-.393Z" transform="translate(-511.503 -1755.571)" fill="#fff"/>
    </g>
    <g id="Group_1627" data-name="Group 1627" transform="translate(519.395 1762.586)">
      <g id="Group_1625" data-name="Group 1625">
        <path id="Path_3861" data-name="Path 3861" d="M517.47,1763.85c-1.52,3.733-3.027,7.43-4.545,11.159.176-.009.3-.021.431-.021q1.711,0,3.421,0a.21.21,0,0,0,.237-.161c.472-1.227.954-2.45,1.433-3.674q.958-2.448,1.918-4.894.918-2.339,1.832-4.681c.113-.289.223-.58.339-.882-.059-.005-.092-.01-.125-.01q-3.843,0-7.689,0c-.112,0-.154.054-.2.146q-.7,1.441-1.41,2.876a1.116,1.116,0,0,0-.041.145Z" transform="translate(-512.568 -1760.44)" fill="#fff"/>
        <path id="Path_3862" data-name="Path 3862" d="M512.653,1775.33l4.554-11.177h-4.353l.1-.357a.565.565,0,0,1,.046-.145l.564-1.15c.282-.575.565-1.149.846-1.726a.432.432,0,0,1,.4-.277h0q3.143,0,6.289,0h1.4a.725.725,0,0,1,.089.005l.368.029-.235.609c-.075.2-.15.391-.226.586l-.194.5q-.818,2.091-1.636,4.182l-2.135,5.445c-.407,1.04-.816,2.078-1.217,3.122a.434.434,0,0,1-.444.313h0c-1.14,0-2.281,0-3.421,0-.081,0-.163.005-.257.011Zm2.419-.529,1.792,0h.02l0-.009c.4-1.043.809-2.085,1.218-3.125l2.135-5.444q.818-2.089,1.635-4.181l.2-.5c.072-.184.142-.368.214-.554H521.1q-3.14,0-6.28,0l-.007.014q-.422.863-.846,1.726l-.46.937h4.4l-4.538,11.139h1.705Z" transform="translate(-512.653 -1760.498)" fill="#fff"/>
      </g>
      <g id="Group_1626" data-name="Group 1626" transform="translate(0.357 0.244)">
        <path id="Path_3863" data-name="Path 3863" d="M517.47,1763.85h-4.4a1.116,1.116,0,0,1,.041-.145q.705-1.439,1.41-2.876c.046-.092.088-.146.2-.146q3.845.006,7.689,0c.033,0,.066.005.125.01-.116.3-.226.593-.339.882q-.914,2.341-1.832,4.681-.958,2.448-1.918,4.894c-.48,1.223-.962,2.446-1.433,3.674a.21.21,0,0,1-.237.161q-1.71-.006-3.421,0c-.127,0-.255.012-.431.021C514.443,1771.28,515.95,1767.583,517.47,1763.85Z" transform="translate(-512.925 -1760.684)" fill="#de031d"/>
      </g>
    </g>
    <g id="Group_1628" data-name="Group 1628" transform="translate(512.731 1753.845)">
      <path id="Path_3864" data-name="Path 3864" d="M521.536,1773.291c.343-.4.678-.77,1-1.159a15.84,15.84,0,0,0,3.069-5.571,10.547,10.547,0,0,0,.432-3.849,8.659,8.659,0,0,0-1.658-4.547,8.554,8.554,0,0,0-4.468-3.143,9.683,9.683,0,0,0-3.756-.381,13.029,13.029,0,0,0-5.506,1.856,16.4,16.4,0,0,0-2.01,1.4.454.454,0,0,1-.348.119,3.1,3.1,0,0,0-.318,0c.193-.185.357-.351.528-.506a13.853,13.853,0,0,1,3.826-2.48,12.393,12.393,0,0,1,3.688-.957,11.634,11.634,0,0,1,3.147.095,10.426,10.426,0,0,1,5.95,3.069,9.177,9.177,0,0,1,2.375,4.478,11.251,11.251,0,0,1,.005,4.6,17.039,17.039,0,0,1-1.983,5.169c-.335.591-.708,1.155-1.069,1.728a.177.177,0,0,1-.129.079C523.39,1773.292,522.474,1773.291,521.536,1773.291Z" transform="translate(-507.46 -1753.795)" fill="#052a78"/>
      <path id="Path_3865" data-name="Path 3865" d="M522.531,1773.548h-1.316l.3-.348c.11-.127.218-.252.326-.375.232-.266.452-.517.666-.78a15.6,15.6,0,0,0,3.03-5.5,10.228,10.228,0,0,0,.424-3.769,8.48,8.48,0,0,0-1.617-4.436,8.392,8.392,0,0,0-4.37-3.072,9.527,9.527,0,0,0-3.685-.373,12.722,12.722,0,0,0-5.428,1.83,16.735,16.735,0,0,0-1.988,1.378.639.639,0,0,1-.486.162,1.194,1.194,0,0,0-.172,0h-.633l.556-.535c.122-.119.238-.231.356-.337a14.048,14.048,0,0,1,3.878-2.515,12.693,12.693,0,0,1,3.742-.971,12,12,0,0,1,3.2.1,10.568,10.568,0,0,1,6.057,3.125,9.426,9.426,0,0,1,2.428,4.58,11.352,11.352,0,0,1,.006,4.693,17.162,17.162,0,0,1-2.006,5.235c-.254.445-.531.881-.8,1.3l-.275.433a.368.368,0,0,1-.29.172C523.8,1773.548,523.169,1773.548,522.531,1773.548Zm-.427-.415c.775,0,1.537,0,2.3,0,.085-.135.177-.279.269-.423.265-.417.539-.847.787-1.283a16.719,16.719,0,0,0,1.958-5.1,10.924,10.924,0,0,0,0-4.514,9,9,0,0,0-2.32-4.377,10.185,10.185,0,0,0-5.847-3.012,11.59,11.59,0,0,0-3.1-.094,12.3,12.3,0,0,0-3.631.943,13.589,13.589,0,0,0-3.559,2.257,17.127,17.127,0,0,1,1.713-1.158,13.065,13.065,0,0,1,5.585-1.881,9.881,9.881,0,0,1,3.826.387,8.785,8.785,0,0,1,4.567,3.214,8.9,8.9,0,0,1,1.7,4.657,10.87,10.87,0,0,1-.44,3.93,16.026,16.026,0,0,1-3.109,5.646c-.219.268-.44.521-.675.79Z" transform="translate(-507.581 -1753.845)" fill="#052a78"/>
    </g>
    <g id="Group_1635" data-name="Group 1635" transform="translate(500.804 1756.53)">
      <g id="Group_1631" data-name="Group 1631">
        <g id="Group_1629" data-name="Group 1629">
          <path id="Path_3866" data-name="Path 3866" d="M509.559,1774.827c.092-.39.183-.781.279-1.171.11-.451.225-.9.336-1.349.012-.047.013-.1.024-.168l-11.695-.051c.056-.284.108-.551.163-.816.084-.411.175-.82.252-1.231a1,1,0,0,1,.235-.464c.717-.867,1.449-1.721,2.148-2.605q1.352-1.71,2.661-3.462c.62-.836,1.21-1.7,1.8-2.561a3.946,3.946,0,0,0,.637-1.438,2.884,2.884,0,0,0,.055-.532.567.567,0,0,0-.675-.616,1.03,1.03,0,0,0-.9.668,5.117,5.117,0,0,0-.453,1.653c-.03.244-.07.487-.1.73-.013.1-.06.135-.159.134q-1.535-.006-3.072,0c-.112,0-.147-.026-.125-.157.125-.691.226-1.389.367-2.077a3.441,3.441,0,0,1,.709-1.374,5.089,5.089,0,0,1,1.719-1.482,5.217,5.217,0,0,1,2.022-.548,6.455,6.455,0,0,1,2.147.175,2.7,2.7,0,0,1,1.747,1.257,2.944,2.944,0,0,1,.389,1.266,5.309,5.309,0,0,1-.489,2.489,12,12,0,0,1-1.628,2.676c-.741.962-1.5,1.909-2.268,2.847-.457.56-.945,1.089-1.419,1.63-.31.352-.623.7-.954,1.073a1.293,1.293,0,0,0,.138.016c1,0,1.994,0,2.993,0a.192.192,0,0,0,.2-.122q.94-1.88,1.888-3.756,1.052-2.091,2.107-4.183c.382-.761.77-1.52,1.147-2.283a.319.319,0,0,1,.328-.215c1.567.008,3.135,0,4.7.008a.921.921,0,0,1,.252.075c-.018.034-.039.066-.056.1q-.686,1.458-1.372,2.917l-3.089,6.594q-1.255,2.682-2.512,5.362C509.881,1774.172,509.718,1774.5,509.559,1774.827Zm3.006-12.1a2.63,2.63,0,0,0-.156.244c-.265.523-.527,1.048-.79,1.571q-.564,1.12-1.129,2.238-.436.859-.868,1.719c-.141.28-.276.561-.427.87.569,0,1.1,0,1.641-.005.038,0,.1-.067.108-.113.154-.594.3-1.189.451-1.783q.465-1.85.932-3.7c.085-.344.16-.693.239-1.04l.028-.07-.022-.007Z" transform="translate(-498.503 -1755.889)" fill="#fff"/>
        </g>
        <g id="Group_1630" data-name="Group 1630" transform="translate(11.018 2.978)">
          <path id="Path_3867" data-name="Path 3867" d="M506.927,1774.116c.159-.329.322-.656.477-.987q1.257-2.68,2.512-5.362l3.089-6.594q.684-1.459,1.372-2.917c.017-.036.038-.067.057-.1-.071.356-.138.714-.213,1.068q-.7,3.322-1.408,6.645-.276,1.3-.556,2.591c-.012.054-.02.109-.034.188h2.867c-.093.218-.171.4-.252.59-.294.671-.593,1.342-.883,2.014a.232.232,0,0,1-.248.172c-.671-.008-1.341,0-2.011-.008-.141,0-.189.052-.222.185-.2.83-.415,1.658-.619,2.487-.032.127-.074.182-.209.18-1.188-.007-2.375,0-3.563,0h-.192Z" transform="translate(-506.889 -1758.155)" fill="#fff"/>
        </g>
      </g>
      <g id="Group_1634" data-name="Group 1634" transform="translate(0 0.332)">
        <g id="Group_1632" data-name="Group 1632">
          <path id="Path_3868" data-name="Path 3868" d="M509.559,1775.08c.092-.39.183-.78.279-1.171.11-.451.225-.9.336-1.349.012-.046.013-.1.024-.168l-11.695-.051c.056-.284.108-.55.163-.816.084-.411.175-.82.252-1.231a1.006,1.006,0,0,1,.235-.464c.717-.867,1.449-1.721,2.148-2.605q1.352-1.711,2.661-3.462c.62-.834,1.21-1.7,1.8-2.561a3.945,3.945,0,0,0,.637-1.437,2.887,2.887,0,0,0,.055-.532.567.567,0,0,0-.675-.616,1.03,1.03,0,0,0-.9.667,5.124,5.124,0,0,0-.453,1.653c-.03.244-.07.488-.1.731-.013.1-.06.135-.159.134q-1.535-.006-3.072,0c-.112,0-.147-.026-.125-.156.125-.691.226-1.389.367-2.077a3.444,3.444,0,0,1,.709-1.374,5.092,5.092,0,0,1,1.719-1.482,5.225,5.225,0,0,1,2.022-.548,6.455,6.455,0,0,1,2.147.175,2.694,2.694,0,0,1,1.747,1.257,2.944,2.944,0,0,1,.389,1.267,5.319,5.319,0,0,1-.489,2.49,12.024,12.024,0,0,1-1.628,2.675c-.741.962-1.5,1.909-2.268,2.848-.457.558-.945,1.088-1.419,1.629-.31.352-.623.7-.954,1.073a1.256,1.256,0,0,0,.138.016c1,0,1.994,0,2.993,0a.192.192,0,0,0,.2-.122q.94-1.88,1.888-3.756,1.052-2.091,2.107-4.183c.382-.761.77-1.52,1.147-2.283a.32.32,0,0,1,.328-.216c1.567.008,3.135,0,4.7.008a.92.92,0,0,1,.252.075c-.018.034-.039.067-.056.1q-.686,1.459-1.372,2.917-1.545,3.3-3.089,6.6-1.255,2.68-2.512,5.361C509.881,1774.424,509.718,1774.752,509.559,1775.08Zm3.006-12.1a2.629,2.629,0,0,0-.156.244c-.265.523-.527,1.048-.79,1.573l-1.129,2.236q-.436.859-.868,1.718c-.141.28-.276.561-.427.87.569,0,1.1,0,1.641-.005.038,0,.1-.067.108-.113.154-.594.3-1.189.451-1.782q.465-1.851.932-3.7c.085-.344.16-.693.239-1.04l.028-.07-.022-.007Z" transform="translate(-498.503 -1756.141)" fill="#de031d"/>
        </g>
        <g id="Group_1633" data-name="Group 1633" transform="translate(11.018 2.978)">
          <path id="Path_3869" data-name="Path 3869" d="M506.927,1774.369c.159-.328.322-.656.477-.987q1.257-2.68,2.512-5.36,1.545-3.3,3.089-6.6.684-1.458,1.372-2.917c.017-.034.038-.067.057-.1-.071.356-.138.714-.213,1.068q-.7,3.323-1.408,6.646-.276,1.3-.556,2.591c-.012.055-.02.109-.034.188h2.867c-.093.218-.171.4-.252.59-.294.671-.593,1.341-.883,2.015a.234.234,0,0,1-.248.172c-.671-.009-1.341,0-2.011-.009-.141,0-.189.053-.222.185-.2.831-.415,1.658-.619,2.487-.032.128-.074.181-.209.18-1.188-.007-2.375,0-3.563,0h-.192Z" transform="translate(-506.889 -1758.408)" fill="#004b97"/>
        </g>
      </g>
    </g>
    <g id="Group_1636" data-name="Group 1636" transform="translate(524.95 1758.998)">
      <path id="Path_3870" data-name="Path 3870" d="M520.779,1758.7l-3.7,1.382c-.046-.247-.084-.477-.131-.7-.03-.142,0-.181.08-.21.426-.158.851-.323,1.276-.488q1.092-.42,2.182-.844c.091-.035.145-.018.169.152C520.689,1758.225,520.735,1758.453,520.779,1758.7Z" transform="translate(-516.864 -1757.749)" fill="#052a78"/>
      <path id="Path_3871" data-name="Path 3871" d="M517.043,1760.206l-.057-.31c-.03-.163-.058-.322-.092-.477s0-.255.129-.3q.52-.193,1.039-.4l.6-.233q.907-.348,1.813-.7a.186.186,0,0,1,.167,0,.3.3,0,0,1,.1.212c.022.162.051.32.081.485l.051.288Zm3.529-2.282s-.009,0-.041.011q-.908.355-1.816.7l-.6.233c-.347.134-.694.268-1.042.4-.043.016-.054.02-.033.12.033.158.062.317.092.482l.024.133,3.559-1.329-.028-.155c-.03-.168-.06-.329-.083-.491C520.59,1757.94,520.573,1757.923,520.572,1757.923Z" transform="translate(-516.881 -1757.767)" fill="#052a78"/>
    </g>
    <g id="Group_1637" data-name="Group 1637" transform="translate(521.63 1755.438)">
      <path id="Path_3872" data-name="Path 3872" d="M514.579,1757.29c.154-.172.281-.318.411-.46.456-.494.92-.979,1.364-1.483.141-.157.262-.193.43-.084.049.031.1.056.177.1-.134.153-.251.291-.373.424-.493.536-.989,1.067-1.477,1.607a.168.168,0,0,1-.24.042C514.787,1757.388,514.7,1757.348,514.579,1757.29Z" transform="translate(-514.283 -1755.012)" fill="#052a78"/>
      <path id="Path_3873" data-name="Path 3873" d="M515.049,1757.7a.392.392,0,0,1-.187-.052c-.054-.029-.109-.055-.175-.087l-.334-.163.31-.348c.1-.108.183-.206.272-.3.142-.155.285-.309.428-.463.31-.331.629-.674.933-1.02a.451.451,0,0,1,.648-.116.966.966,0,0,0,.095.053l.28.152-.286.327c-.085.1-.167.19-.25.281l-.5.539c-.327.353-.656.708-.979,1.067A.346.346,0,0,1,515.049,1757.7Zm-.1-.424.074.038.021.009.015-.014c.324-.359.653-.715.981-1.07l.5-.539c.071-.078.141-.158.213-.24-.066-.041-.1-.043-.193.063-.307.348-.629.692-.939,1.026q-.215.229-.428.46C515.107,1757.092,515.029,1757.179,514.947,1757.273Z" transform="translate(-514.354 -1755.057)" fill="#052a78"/>
    </g>
    <g id="Group_1638" data-name="Group 1638" transform="translate(517.908 1756.144)">
      <path id="Path_3874" data-name="Path 3874" d="M512.256,1755.618v1.089c0,.33-.08.384-.711.451v-.443c0-.273.008-.548-.005-.821,0-.1.042-.15.211-.176C511.9,1755.7,512.051,1755.66,512.256,1755.618Z" transform="translate(-511.516 -1755.588)" fill="#052a78"/>
      <path id="Path_3875" data-name="Path 3875" d="M511.526,1757.194v-.472c0-.078,0-.155,0-.231,0-.193,0-.393-.005-.589-.007-.119.059-.176.231-.2.1-.016.2-.037.319-.062l.185-.038.029-.005v1.12c0,.345-.1.408-.733.476Zm.712-1.537-.156.033c-.117.025-.218.046-.322.062-.164.025-.193.071-.189.149.009.2.008.4.005.591,0,.078,0,.154,0,.231v.414c.617-.067.664-.124.664-.422Z" transform="translate(-511.522 -1755.595)" fill="#052a78"/>
    </g>
    <path id="Path_3876" data-name="Path 3876" d="M507.81,1760.7l0-.065.02.005-.024.06Z" transform="translate(5.222 2.131)" fill="#f3f9fd"/>
  </g>
</svg>
