<svg id="bank" xmlns="http://www.w3.org/2000/svg" width="25.515" height="25.386" viewBox="0 0 25.515 25.386">
  <path id="Path_3339" data-name="Path 3339" d="M23.533,18.833a.6.6,0,0,0,.6-.6V17.2h.783a.6.6,0,0,0,.6-.6V15.232a.6.6,0,0,0-.6-.6H23.836V10.522a1.334,1.334,0,0,0,.322.04,1.366,1.366,0,0,0,.355-.047,1.354,1.354,0,0,0,.325-2.479L13.484,1.48a1.518,1.518,0,0,0-1.451,0L.677,8.035a1.354,1.354,0,0,0,1,2.486V14.63H.6a.6.6,0,0,0-.6.6V16.6a.6.6,0,0,0,.6.6h.783v1.035a.6.6,0,0,0,.6.6h.45v3.646h-.45a.6.6,0,0,0-.6.6v1.033H.6a.6.6,0,0,0-.6.6v1.367a.6.6,0,0,0,.6.6H11.978a.374.374,0,1,0,0-.748H.749V24.856H24.768v1.078H13.7a.374.374,0,1,0,0,.748h11.21a.6.6,0,0,0,.6-.6V24.711a.6.6,0,0,0-.6-.6H24.13V23.075a.6.6,0,0,0-.6-.6h-.45V18.833h.45ZM1.658,9.733a.609.609,0,0,1-.829-.222h0a.607.607,0,0,1,.222-.828L12.408,2.126a.718.718,0,0,1,.35-.084.709.709,0,0,1,.351.084L24.465,8.683a.606.606,0,0,1-.605,1.051l-10.915-6.3a.374.374,0,0,0-.374,0ZM.749,15.377H11.978a.374.374,0,0,0,0-.748H2.429V10.151L12.758,4.187l10.331,5.964V14.63H13.641a.374.374,0,1,0,0,.748H24.768v1.078H.749Zm9.692,2.708V17.2h4.634v.883Zm3.588.748v3.646H11.488V18.833ZM2.135,18.085V17.2H6.768v.883Zm3.588.748v3.646H3.18V18.833Zm1.045,5.276H2.135v-.883H6.768Zm2.925-1.033v1.033H7.516V23.075a.6.6,0,0,0-.6-.6H6.47V18.833h.45a.6.6,0,0,0,.6-.6V17.2H9.693v1.035a.6.6,0,0,0,.6.6h.45v3.646h-.45A.6.6,0,0,0,9.693,23.075Zm5.382,1.033H10.441v-.883h4.634ZM18,23.075v1.033H15.823V23.075a.6.6,0,0,0-.6-.6h-.45V18.833h.45a.6.6,0,0,0,.6-.6V17.2H18v1.035a.6.6,0,0,0,.6.6h.45v3.646H18.6A.6.6,0,0,0,18,23.075Zm5.382.151v.883H18.748v-.883Zm-3.588-.748V18.833h2.541v3.646Zm-1.047-4.393V17.2h4.634v.883Z" transform="translate(-0.001 -1.295)" fill="#00ab4e"/>
  <path id="Path_3340" data-name="Path 3340" d="M228.735,89.065a1.57,1.57,0,1,0-1.57,1.57A1.572,1.572,0,0,0,228.735,89.065Zm-2.393,0a.823.823,0,1,1,.823.823A.824.824,0,0,1,226.343,89.065Z" transform="translate(-214.353 -83.199)" fill="#00ab4e"/>
  <g id="Group_818" data-name="Group 818" transform="translate(6.153 8.529)">
    <path id="Path_3341" data-name="Path 3341" d="M125.572,174.776a1.04,1.04,0,0,0-.879-1.6h-.843a.374.374,0,0,0-.374.374v2.9a.374.374,0,0,0,.374.374h0l.989,0a1.155,1.155,0,0,0,.732-2.048Zm-.879-.851a.294.294,0,0,1,0,.588h-.469v-.589h.469Zm.147,2.152-.617,0v-.816h.617a.407.407,0,1,1,0,.815Z" transform="translate(-123.476 -173.142)" fill="#00ab4e"/>
    <path id="Path_3342" data-name="Path 3342" d="M189.175,173.462l0-.01a.438.438,0,0,0-.407-.273h0a.438.438,0,0,0-.407.273l0,.008-1.09,2.862a.374.374,0,0,0,.7.266l.18-.472h1.235l.178.471a.374.374,0,0,0,.7-.264Zm-.747,1.907.336-.882.333.882Z" transform="translate(-184.062 -173.143)" fill="#00ab4e"/>
    <path id="Path_3343" data-name="Path 3343" d="M266.21,173.179h0a.374.374,0,0,0-.37.377l.017,1.733-1.342-1.944a.374.374,0,0,0-.681.212v2.9a.374.374,0,0,0,.748,0v-1.7l1.278,1.85a.412.412,0,0,0,.465.171.426.426,0,0,0,.291-.425l-.027-2.8A.374.374,0,0,0,266.21,173.179Z" transform="translate(-256.835 -173.143)" fill="#00ab4e"/>
    <path id="Path_3344" data-name="Path 3344" d="M343.746,175.494l-1.306-1.26,1.195-1.1a.374.374,0,1,0-.506-.55l-.954.877v-.639a.374.374,0,1,0-.748,0v2.939a.374.374,0,0,0,.748,0v-.746l1.052,1.015a.374.374,0,1,0,.519-.538Z" transform="translate(-330.567 -172.45)" fill="#00ab4e"/>
  </g>
</svg>
