<?xml version="1.0" encoding="utf-8"?>
<!-- Generator: Adobe Illustrator 24.0.0, SVG Export Plug-In . SVG Version: 6.00 Build 0)  -->
<svg version="1.1" id="Layer_1" xmlns="http://www.w3.org/2000/svg" xmlns:xlink="http://www.w3.org/1999/xlink" x="0px" y="0px"
	 viewBox="0 0 209.9 193.9" style="enable-background:new 0 0 209.9 193.9;" xml:space="preserve">
<style type="text/css">
	.st0{fill:#00A651;}
</style>
<g>
	<path class="st0" d="M91.8,80.4c-0.5-6-2-11.8-5.1-17c-8.5-14.5-25.1-13.2-34.4-7.8c-1.6,1-3.7,2.3-2.4,4.7c1.1,1.9,2.6,1,4.2,0.1
		c14.2-8.2,28-2.1,31.7,13.8C88.2,85,87,96,87.2,107c0.2,9.6,0,9.6-10.3,8.8c1-1.5,1.9-2.8,2.7-4.2c3.7-6.3,5.2-13.2,4.9-20.5
		c-0.1-2.2-0.8-5.2-3.6-3.2c-2.7,1.9-5,1.3-7.4,0.6c-8-2-15.1-5.9-21.5-11c-2.2-1.7-4-2-6,0.2c-2.9,3.1-6.5,5.2-10.5,6.5
		c-3.3,1-4.1,3.1-4.1,6.3c-0.1,9.2,2.1,17.6,7.9,25.5c-2.7,0-4.7-0.2-6.7,0c-3.6,0.5-4.9-0.6-4.7-4.5c0.3-8.6-0.2-17.3,0.2-25.9
		c0.5-11.1,3.7-21,14.4-26.6c1.6-0.8,3.8-1.6,2.6-3.9c-1.3-2.4-3.3-1.3-5.2-0.4c-9.4,4.7-14.2,12.8-15.9,22.7
		c-2.2,12.5-0.7,25.2-0.9,37.9c0,3.6,2.4,5.7,6.2,5.6c2.2,0,4.3,0.1,6.5,0c4.7-0.2,8.9,0.2,13.1,3.2c5,3.6,11.3,4.5,16.4,0.8
		c6.1-4.5,12.7-3.9,19.4-4c6,0,7.7-1.6,7.7-7.7C92.3,102.3,92.7,91.3,91.8,80.4z M64.9,119.8c-5.4,3.4-10.9,2.8-15.8-1
		c-8.7-6.7-13-15.7-12.9-26.8c0-2,0.7-3.1,2.5-3.7c0.2-0.1,0.3-0.1,0.5-0.2c6.9-6.3,13.3-5.4,20.4,0.2c4.6,3.6,10.6,5.2,16.7,5.8
		c2.1,0.2,3.7,0.7,3.1,2.3C77.5,106.9,73.1,114.6,64.9,119.8z"/>
	<path class="st0" d="M165.8,90.8c0.4,8.4-3.3,16.8-8.4,24.7c-1,1.5-2,3.1-2.7,4.7c-0.5,1.3-0.3,2.7,1.1,3.5
		c1.4,0.7,2.7,0.7,4.1-0.5c10.4-9.5,16.2-34.3,11-47.3c-5-12.4-17.3-15.3-27.3-6.3c-1.4,1.3-2.8,3.5-4.9,1.1
		c-1.8-2.1,0.3-3.3,1.4-4.5c10.2-10.7,27.2-8.3,34,4.8c5.7,11,5.4,22.3,1.3,33.7c-2.6,7.2-6.3,13.9-10.7,20.2
		c-3,4.4-7.7,5.6-11.6,3.1c-4-2.6-5-7.3-2.2-11.8c4-6.3,8.1-12.5,9.2-20.2c0.5-3.5,0.6-7,0.5-10.4c-0.2-4.7-3.6-7.7-8.2-7.5
		c-4.2,0.1-7,2.8-6.9,7.4c0.2,12.6-6.3,22-14.5,30.6c-1.3,1.3-2.5,3-4.5,0.9c-1.7-1.8-0.2-3,0.9-4.2c4.6-4.7,8.5-9.8,11-15.8
		c1.4-3.2,1.9-6.6,1.9-10.2c0.1-9,4.8-13.9,12.8-13.7c7.4,0.2,12.5,6.1,12.4,14.4C165.8,88.1,165.8,88.8,165.8,90.8z"/>
	<path class="st0" d="M153.9,48.6c7.8,0.1,14.9,1.3,20.7,6.5c1.2,1.1,2.8,2.3,1.2,4.1c-1.4,1.6-2.8,0.8-4.3-0.3
		c-19.1-13.2-42.6-2.4-45.6,20.9c-0.1,0.8,0,1.7-0.1,2.5c-0.3,1.6-1.1,2.9-3,2.6c-1.7-0.2-1.8-1.5-1.9-3c-1.3-14.7,12-31.1,27-32.9
		C149.9,48.8,152,48.7,153.9,48.6z"/>
	<path class="st0" d="M187.7,88.8c-0.3,10.6-2.8,20.3-7.3,29.5c-0.8,1.7-1.8,3.6-4.1,2.4c-2.4-1.2-1.2-3.1-0.4-4.7
		c7-14.8,9.2-30,3.2-45.7c-0.6-1.6-1-3.5,1.2-4.1c2.1-0.6,2.9,0.9,3.5,2.6C186.5,75.2,187.5,82.1,187.7,88.8z"/>
	<path class="st0" d="M156.8,158.9c-3.8,0-7.7,0-11.5,0c-2.1,0-4.4,0-4.4-2.7c0-2.5,2.3-2.3,4.2-2.3c6.2,0,12.3-0.2,18.5,0.1
		c3.6,0.2,5.1-0.6,4.8-4.5c-0.4-4.1-0.1-8.3-0.1-12.5c0-1.8-0.1-4,2.6-3.9c2.3,0,2.5,1.9,2.5,3.6c0.1,6.2,0,12.3,0,18.5
		c0,2.6-1.3,3.9-4.1,3.8C165.1,158.8,161,158.9,156.8,158.9z"/>
	<path class="st0" d="M53,158.9c-4,0-8-0.1-12,0c-2.4,0.1-3.9-1-4-3.4c-0.1-6.5-0.1-12.9,0-19.4c0-1.6,0.6-3.1,2.5-3.1
		c2.4-0.1,2.5,1.7,2.5,3.5c0,4.6,0.2,9.3,0,13.9c-0.1,2.9,1,3.6,3.7,3.6c6.6-0.2,13.3-0.1,19.9-0.1c1.9,0,4.1-0.1,4,2.5
		c-0.1,2.3-2.1,2.6-4.1,2.5C61.3,158.9,57.2,158.9,53,158.9z"/>
	<path class="st0" d="M53.5,22.8c4,0,8,0,12,0c1.8,0,4.1-0.1,4.1,2.4c0,2.2-2,2.7-4,2.7c-6.5,0-13,0.2-19.5-0.1
		c-3.4-0.1-4.2,1-4.1,4.2c0.3,4.5,0,9,0.1,13.5c0,1.7-0.5,3.2-2.3,3.2c-1.7,0-2.7-1.3-2.7-3c0-6.5,0-13,0-19.5
		c0-2.5,1.5-3.4,3.9-3.4C45.1,22.9,49.3,22.8,53.5,22.8z"/>
	<path class="st0" d="M173.3,32.1c0,2,0.1,4,0,6c-0.1,1.5-1.1,2.6-2.5,2.6c-1.6,0-2.2-1.2-2.4-2.6c-0.1-0.8-0.1-1.7-0.1-2.5
		c-0.2-7.6-0.2-7.6-8-7.6c-4.8,0-9.6,0-14.4,0c-2.1,0-4.9,0.3-4.9-2.7c0-2.8,2.7-2.3,4.6-2.3c7.1-0.1,14.3,0.3,21.4-0.1
		c5-0.3,7.2,1.3,6.4,6.4C173.3,30.1,173.4,31.1,173.3,32.1C173.4,32.1,173.3,32.1,173.3,32.1z"/>
	<path class="st0" d="M155.6,89.8c-0.8,9-4.9,16.3-10.4,22.9c-1.2,1.4-2.4,3-4.5,1.2c-1.8-1.7-0.5-3,0.6-4.3c4.3-5.3,7.9-11,8.9-18
		c0.1-0.7,0.2-1.3,0.3-2c0.3-1.9-0.9-5,2.6-4.7C156.2,85.2,155.4,88.1,155.6,89.8z"/>
	<path class="st0" d="M127.6,100c-1.9-0.2-2.8-2.1-1.7-3.4c4-4.5,3.4-10.2,4.7-15.4c0.4-1.7,1.2-3.4,2-5c0.6-1.3,1.7-1.4,3-1.1
		c1.2,0.2,1.9,1.5,1.5,2.2c-3.3,6.4-0.9,14.3-5.8,20.2C130.3,98.5,129.7,100,127.6,100z"/>
</g>
</svg>
