<svg xmlns="http://www.w3.org/2000/svg" width="23.937" height="21.113" viewBox="0 0 23.937 21.113">
  <g id="Group_1363" data-name="Group 1363" transform="translate(-193.291 -236.676)">
    <path id="Path_3758" data-name="Path 3758" d="M193.726,475.822a1.5,1.5,0,0,0,1.05.435h20.968a1.485,1.485,0,0,0,1.485-1.485V462.494H193.291v12.278A1.5,1.5,0,0,0,193.726,475.822Zm18.683-12.332h3.426v3.048h-3.426Zm0,3.891h3.426v3.048h-3.426Zm-4.432-3.891H211.4v3.048h-3.427Zm0,3.891H211.4v3.048h-3.427Zm0,3.891H211.4v3.048h-3.427Zm-4.431-7.782h3.427v3.048h-3.427Zm0,3.891h3.427v3.048h-3.427Zm0,3.891h3.427v3.048h-3.427Zm-4.431-7.782h3.427v3.048h-3.427Zm0,3.891h3.427v3.048h-3.427Zm0,3.891h3.427v3.048h-3.427Zm-4.431-3.891h3.427v3.048h-3.427Zm0,3.891h3.427v3.048h-3.427Z" transform="translate(0 -218.467)" fill="#616e7d"/>
    <rect id="Rectangle_1248" data-name="Rectangle 1248" width="23.937" height="0.879" transform="translate(193.291 242.611)" fill="#aad4c8"/>
    <path id="Path_3759" data-name="Path 3759" d="M195.753,289.2h-.977a1.484,1.484,0,0,0-1.485,1.484v1.725h23.937v-1.725a1.485,1.485,0,0,0-1.485-1.484h-2.518v1.943a.657.657,0,0,1-.657.657h-1.384a.656.656,0,0,1-.656-.657V289.2H199.992v1.943a.657.657,0,0,1-.657.657h-1.385a.656.656,0,0,1-.656-.657V289.2Z" transform="translate(0 -50.816)" fill="#aad4c8"/>
    <rect id="Rectangle_1249" data-name="Rectangle 1249" width="23.937" height="1.016" transform="translate(193.291 241.595)" fill="#82bfab"/>
    <path id="Path_3760" data-name="Path 3760" d="M336.461,240.329h1.385v-3.653h-1.385v3.653Z" transform="translate(-138.51 0)" fill="#616e7d"/>
    <path id="Path_3761" data-name="Path 3761" d="M743.017,240.329H744.4v-3.653h-1.384v3.653Z" transform="translate(-531.833 0)" fill="#616e7d"/>
    <rect id="Rectangle_1250" data-name="Rectangle 1250" width="3.427" height="3.048" transform="translate(199.115 245.023)" fill="#82bfab"/>
    <rect id="Rectangle_1251" data-name="Rectangle 1251" width="3.427" height="3.048" transform="translate(203.546 245.023)" fill="#82bfab"/>
    <rect id="Rectangle_1252" data-name="Rectangle 1252" width="3.427" height="3.048" transform="translate(207.977 245.023)" fill="#82bfab"/>
    <rect id="Rectangle_1253" data-name="Rectangle 1253" width="3.426" height="3.048" transform="translate(212.409 245.023)" fill="#82bfab"/>
    <rect id="Rectangle_1254" data-name="Rectangle 1254" width="3.427" height="3.048" transform="translate(194.684 248.914)" fill="#82bfab"/>
    <rect id="Rectangle_1255" data-name="Rectangle 1255" width="3.427" height="3.048" transform="translate(199.115 248.914)" fill="#82bfab"/>
    <rect id="Rectangle_1256" data-name="Rectangle 1256" width="3.427" height="3.048" transform="translate(203.546 248.914)" fill="#82bfab"/>
    <rect id="Rectangle_1257" data-name="Rectangle 1257" width="3.427" height="3.048" transform="translate(207.977 248.914)" fill="#aad4c8"/>
    <rect id="Rectangle_1258" data-name="Rectangle 1258" width="3.426" height="3.048" transform="translate(212.409 248.914)" fill="#82bfab"/>
    <rect id="Rectangle_1259" data-name="Rectangle 1259" width="3.427" height="3.048" transform="translate(194.684 252.805)" fill="#82bfab"/>
    <rect id="Rectangle_1260" data-name="Rectangle 1260" width="3.427" height="3.048" transform="translate(199.115 252.805)" fill="#aad4c8"/>
    <rect id="Rectangle_1261" data-name="Rectangle 1261" width="3.427" height="3.048" transform="translate(203.546 252.805)" fill="#82bfab"/>
    <rect id="Rectangle_1262" data-name="Rectangle 1262" width="3.427" height="3.048" transform="translate(207.977 252.805)" fill="#82bfab"/>
  </g>
</svg>
