<svg width="59" height="41" viewBox="0 0 59 41" fill="none" xmlns="http://www.w3.org/2000/svg">
<path d="M49.9848 17.8994C48.6957 7.81929 40.002 0 29.5 0C21.3698 0 14.3075 4.715 11.0832 12.1506C4.74655 14.0337 0 19.9729 0 26.3571C0 34.1384 6.16255 40.4582 13.8886 40.9151V41H47.1705V40.9912L47.2 41C53.7077 41 59 35.7461 59 29.2857C58.9965 26.6603 58.1065 24.1119 56.4722 22.0477C54.8379 19.9836 52.5537 18.523 49.9848 17.8994V17.8994ZM17.7 20.5H26.55V11.7143H32.45V20.5H41.3L29.5 35.1429L17.7 20.5Z" fill="black"/>
</svg>
