<svg xmlns="http://www.w3.org/2000/svg" width="23.898" height="22.309" viewBox="0 0 23.898 22.309">
  <g id="Group_1472" data-name="Group 1472" transform="translate(-53 -221.692)">
    <g id="Group_1471" data-name="Group 1471" transform="translate(7.005 174.253)">
      <path id="Path_3792" data-name="Path 3792" d="M54.2,47.439a8.163,8.163,0,0,1,7.74,5.571c.079.237.12.431.465.455A8.184,8.184,0,0,1,69.6,59.426a7.916,7.916,0,0,1-.366,5.323,1.629,1.629,0,0,0,.014,1.04c.188,1,.405,2,.61,3,.126.617-.226,1.024-.85.918-1.19-.2-2.375-.438-3.557-.682a.9.9,0,0,0-.574.065A8.158,8.158,0,0,1,53.918,64.13c-.087-.263-.194-.4-.506-.409a4.937,4.937,0,0,1-2.111-.493,2.426,2.426,0,0,0-1.7-.012c-.852.161-1.7.348-2.551.5-.833.152-1.165-.207-1-1.036.223-1.092.438-2.185.657-3.278a.973.973,0,0,0-.067-.585,8.159,8.159,0,0,1,5.4-11.1A8.609,8.609,0,0,1,54.2,47.439Z" fill="#fff"/>
      <path id="Path_3793" data-name="Path 3793" d="M80.877,78.6c-.981-.193-1.891-.365-2.8-.554a1.435,1.435,0,0,0-.944.1,6.742,6.742,0,1,1,3.926-5.83,6.062,6.062,0,0,1-.587,2.467,1.674,1.674,0,0,0-.149,1.156C80.519,76.8,80.683,77.66,80.877,78.6Z" transform="translate(-12.583 -10.449)" fill="#009d3a"/>
      <path id="Path_3794" data-name="Path 3794" d="M49.568,64.166c.2-1,.356-1.932.566-2.85a1.251,1.251,0,0,0-.116-.846A6.787,6.787,0,1,1,62.481,55.1c.128.324.037.383-.253.433a8.12,8.12,0,0,0-6.722,8.4c.019.356-.058.424-.4.351a7.219,7.219,0,0,1-1.806-.575,1.346,1.346,0,0,0-.945-.1C51.451,63.8,50.541,63.974,49.568,64.166Z" transform="translate(-1.983 -1.987)" fill="#009d3a"/>
    </g>
    <text id="Q" transform="translate(56 230)" fill="#fff" font-size="7" font-family="SegoeUI, Segoe UI"><tspan x="0" y="0">Q</tspan></text>
    <text id="A" transform="translate(66 238)" fill="#fff" font-size="7" font-family="SegoeUI, Segoe UI"><tspan x="0" y="0">A</tspan></text>
  </g>
</svg>
