<svg xmlns="http://www.w3.org/2000/svg" width="39.68" height="45.041" viewBox="0 0 39.68 45.041">
  <g id="Group_1856" data-name="Group 1856" transform="translate(-174.966 -442.856)">
    <path id="Path_4052" data-name="Path 4052" d="M195.8,596.348c-.979-.262-1.96-.517-2.936-.788-2.252-.625-4.507-1.24-6.75-1.9a2.985,2.985,0,0,0-2.566.291,3.429,3.429,0,0,1-.426.225c-.49.219-.906.444-.849,1.125.032.385-.3.631-.708.623-1.934-.04-3.868-.083-5.8-.145-.565-.018-.81-.332-.794-.937q.093-3.494.194-6.988.075-2.7.148-5.406c.021-.789.249-1.009,1.044-.99q2.637.065,5.274.131c.841.022,1.058.265,1.024,1.109-.011.276,0,.553,0,.85.441-.175.877-.373,1.329-.524a9.094,9.094,0,0,1,7.246.45,9.382,9.382,0,0,0,4.419,1.068c1.347-.007,2.695.065,4.043.1a4.624,4.624,0,0,1,3.972,2.195c.155.237.262.254.5.139,1.858-.889,3.715-1.778,5.587-2.637a3.7,3.7,0,0,1,4.7,1.384.766.766,0,0,1-.26,1.226c-4.321,2.8-8.635,5.609-12.974,8.381a7.316,7.316,0,0,1-3.039.933c-.091.012-.212-.054-.265.083Z" transform="translate(0 -108.451)" fill="#00ab4e"/>
    <path id="Path_4053" data-name="Path 4053" d="M229.731,509.5a10.7,10.7,0,1,1,10.73-10.669A10.712,10.712,0,0,1,229.731,509.5Z" transform="translate(-34.475 -35.397)" fill="#00ab4e"/>
    <path id="Path_4054" data-name="Path 4054" d="M266.389,447.076c0,1.156.007,2.312,0,3.468a.719.719,0,0,1-.823.791.679.679,0,0,1-.632-.718q-.01-3.512,0-7.023a.726.726,0,1,1,1.451.015c.013,1.156,0,2.312,0,3.467Z" transform="translate(-70.389)" fill="#00ab4e"/>
    <path id="Path_4055" data-name="Path 4055" d="M240.908,462.233c0,.526.007,1.052,0,1.578a.744.744,0,0,1-.716.824c-.44.009-.74-.317-.744-.839q-.011-1.556,0-3.113c0-.53.294-.85.738-.845s.716.326.724.861C240.914,461.21,240.909,461.721,240.908,462.233Z" transform="translate(-50.448 -13.287)" fill="#00ab4e"/>
    <path id="Path_4056" data-name="Path 4056" d="M291.838,462.237c0,.526.007,1.052,0,1.578a.742.742,0,0,1-.72.82.731.731,0,0,1-.739-.8q-.015-1.6,0-3.2a.728.728,0,0,1,.741-.8.738.738,0,0,1,.718.821C291.845,461.184,291.838,461.711,291.838,462.237Z" transform="translate(-90.297 -13.287)" fill="#00ab4e"/>
    <path id="Path_4057" data-name="Path 4057" d="M208.986,601.85c.07-2.43.142-4.847.2-7.263.005-.22.124-.3.281-.393a7.936,7.936,0,0,1,7.725-.375,9.51,9.51,0,0,0,3.379,1.146c1.067.068,2.138.077,3.207.11.893.028,1.787.046,2.68.082a3.244,3.244,0,0,1,2.9,2.135c.118.325.109.447-.3.433-2.416-.081-4.833-.138-7.25-.2a2.372,2.372,0,0,0-.439.008.674.674,0,0,0-.609.694.668.668,0,0,0,.57.725,4.1,4.1,0,0,0,.7.054c2.622.072,5.245.12,7.865.22,1.029.04,1.22-.475,1.1-1.224a.5.5,0,0,1,.352-.651c1.843-.85,3.673-1.729,5.508-2.6a2.278,2.278,0,0,1,2.542.288c-.038.174-.184.2-.285.268-3.952,2.562-7.889,5.147-11.869,7.665a6.819,6.819,0,0,1-4.707.84,46.1,46.1,0,0,1-5.168-1.357c-1.441-.379-2.871-.8-4.3-1.212a4.3,4.3,0,0,0-3.551.4c-.125.075-.258.136-.39.2C209.1,601.859,209.07,601.85,208.986,601.85Z" transform="translate(-26.619 -117.474)" fill="#fefefe"/>
    <path id="Path_4058" data-name="Path 4058" d="M186.386,594.1c-.052,1.8-.11,3.6-.151,5.4-.006.255-.082.311-.325.3-1.258-.045-2.517-.081-3.775-.1-.271,0-.3-.109-.293-.339q.164-5.356.307-10.713c.007-.273.08-.339.348-.329,1.244.047,2.488.083,3.732.1.306,0,.31.128.3.368-.057,1.771-.1,3.542-.149,5.313Z" transform="translate(-5.38 -113.82)" fill="#fefefe"/>
    <path id="Path_4059" data-name="Path 4059" d="M235.087,513.35a9.232,9.232,0,1,1,9.225-9.268A9.242,9.242,0,0,1,235.087,513.35Z" transform="translate(-39.808 -40.712)" fill="#fefefe"/>
    <g id="Group_1855" data-name="Group 1855" transform="translate(191.61 457.271)">
      <path id="Path_4060" data-name="Path 4060" d="M251.475,520.011v-.824a3.3,3.3,0,0,0,1.879-2.884,7.021,7.021,0,0,0-.082-1.154h-1.7v-1.038h1.533a10.977,10.977,0,0,1-.181-1.78,3.041,3.041,0,0,1,3.164-3.214,3.454,3.454,0,0,1,1.8.412l-.329,1.088a3,3,0,0,0-1.467-.329c-1.285,0-1.813.89-1.813,2.06a8.828,8.828,0,0,0,.2,1.764h2.373v1.038h-2.242a5.752,5.752,0,0,1-.066,1.846,3.434,3.434,0,0,1-1.137,1.78v.033h4.911v1.2Z" transform="translate(-251.475 -509.117)" fill="#00ab4e"/>
    </g>
  </g>
</svg>
