<svg id="Layer_1" data-name="Layer 1" xmlns="http://www.w3.org/2000/svg" viewBox="0 0 16.01 15.98"><defs><style>.cls-1{fill:#059c49;}.cls-2{fill:#fff;}</style></defs><title>Highest Rate</title><path class="cls-1" d="M18.34,14.92H11.4V13.84h6.94a.32.32,0,0,1,.32.32v.44A.32.32,0,0,1,18.34,14.92Zm-6.85-.09h6.85a.23.23,0,0,0,.23-.23v-.44a.23.23,0,0,0-.23-.23H11.49Z" transform="translate(-2.65 -1.41)"/><path class="cls-1" d="M13.84,14.92h-3a.16.16,0,0,1-.15-.16V14a.16.16,0,0,1,.15-.16h3A.2.2,0,0,1,14,14v.7A.2.2,0,0,1,13.84,14.92Zm-3-1a.07.07,0,0,0-.06.07v.76a.07.07,0,0,0,.06.07h3a.11.11,0,0,0,.1-.1V14a.11.11,0,0,0-.1-.1Z" transform="translate(-2.65 -1.41)"/><path class="cls-1" d="M18.34,15.9H11.4V14.82h6.94a.32.32,0,0,1,.32.32v.44A.32.32,0,0,1,18.34,15.9Zm-6.85-.09h6.85a.23.23,0,0,0,.23-.23v-.44a.22.22,0,0,0-.23-.22H11.49Z" transform="translate(-2.65 -1.41)"/><path class="cls-1" d="M15.48,15.9H10.83a.16.16,0,0,1-.15-.16V15a.16.16,0,0,1,.15-.16h4.65a.19.19,0,0,1,.18.19v.7A.18.18,0,0,1,15.48,15.9Zm-4.65-1a.06.06,0,0,0-.06.06v.76a.07.07,0,0,0,.06.07h4.65a.09.09,0,0,0,.09-.1V15a.09.09,0,0,0-.09-.09Z" transform="translate(-2.65 -1.41)"/><path class="cls-1" d="M18.34,16.88H10.58V15.81h7.76a.31.31,0,0,1,.32.31v.45A.31.31,0,0,1,18.34,16.88Zm-7.67-.09h7.67a.22.22,0,0,0,.23-.22v-.45a.22.22,0,0,0-.23-.22H10.67Z" transform="translate(-2.65 -1.41)"/><path class="cls-1" d="M17,16.88H10.83a.15.15,0,0,1-.15-.15V16a.15.15,0,0,1,.15-.15H17a.19.19,0,0,1,.19.18v.7A.19.19,0,0,1,17,16.88Zm-6.13-1a.06.06,0,0,0-.06.06v.77a.06.06,0,0,0,.06.06H17a.1.1,0,0,0,.1-.1V16a.1.1,0,0,0-.1-.09Z" transform="translate(-2.65 -1.41)"/><path class="cls-1" d="M13.77,16.88H10.83a.15.15,0,0,1-.15-.15V16a.15.15,0,0,1,.15-.15h2.94A.19.19,0,0,1,14,16v.7A.19.19,0,0,1,13.77,16.88Zm-2.94-1a.06.06,0,0,0-.06.06v.77a.06.06,0,0,0,.06.06h2.94a.1.1,0,0,0,.1-.1V16a.1.1,0,0,0-.1-.09Z" transform="translate(-2.65 -1.41)"/><rect class="cls-1" x="12.5" y="4.59" width="1.32" height="7.88"/><rect class="cls-1" x="10.77" y="6.26" width="1.25" height="6.22"/><rect class="cls-1" x="9.05" y="7.89" width="1.21" height="4.58"/><rect class="cls-1" x="7.29" y="9.22" width="1.27" height="3.25"/><rect class="cls-1" x="5.68" y="8.41" width="1.22" height="4.06"/><rect class="cls-1" x="4.08" y="7.6" width="1.23" height="4.87"/><rect class="cls-1" x="2.47" y="9.24" width="1.25" height="3.24"/><path class="cls-1" d="M4,7.63l.82.82L8.36,5l3,3.21,4.9-4.88,0,.53h1l0-2.42-2.38,0-.05,1.08h.57L11.28,6.6S8.38,3.33,8.33,3.33,4,7.63,4,7.63Z" transform="translate(-2.65 -1.41)"/><path class="cls-2" d="M9.16,12a2.68,2.68,0,0,0-1.9.79,2.71,2.71,0,1,0,0,3.83,2.69,2.69,0,0,0,4.6-1.91A2.7,2.7,0,0,0,9.16,12Z" transform="translate(-2.65 -1.41)"/><path class="cls-1" d="M9,12.17a2.5,2.5,0,0,0-1.77.73,2.52,2.52,0,1,0,0,3.57A2.52,2.52,0,1,0,9,12.17Z" transform="translate(-2.65 -1.41)"/><circle class="cls-2" cx="2.7" cy="13.28" r="2.15"/><circle class="cls-2" cx="6.51" cy="13.28" r="2.15"/><path class="cls-1" d="M5.93,15.22l.15.35a.54.54,0,0,1-.19.07l-.21,0a1.41,1.41,0,0,1-.35-.06A1.3,1.3,0,0,0,5,15.55a.64.64,0,0,0-.37.13l-.15-.36a.8.8,0,0,0,.24-.25.63.63,0,0,0,.07-.25.28.28,0,0,0,0-.09h-.3v-.32h.23a1,1,0,0,1-.06-.35.67.67,0,0,1,.08-.3A.54.54,0,0,1,5,13.54a.81.81,0,0,1,.35-.07.64.64,0,0,1,.45.14A.61.61,0,0,1,6,14l-.39.06a.41.41,0,0,0-.1-.23.29.29,0,0,0-.18-.07.27.27,0,0,0-.28.28.61.61,0,0,0,0,.16.78.78,0,0,0,0,.18h.45v.32H5.19a.2.2,0,0,1,0,.07.46.46,0,0,1,0,.21.86.86,0,0,1-.17.26.4.4,0,0,1,.2,0h.09l.12,0,.24.05A.79.79,0,0,0,5.93,15.22Z" transform="translate(-2.65 -1.41)"/><path class="cls-1" d="M9,15.32v-.61a.78.78,0,0,1-.42-.24.63.63,0,0,1-.13-.41.57.57,0,0,1,.15-.4.61.61,0,0,1,.4-.19v-.14h.21v.14a.67.67,0,0,1,.37.16.69.69,0,0,1,.18.35l-.37,0a.31.31,0,0,0-.18-.23v.57a.93.93,0,0,1,.48.24.61.61,0,0,1,.13.39.66.66,0,0,1-.16.44.75.75,0,0,1-.45.23v.27H9v-.27a.66.66,0,0,1-.41-.19.79.79,0,0,1-.2-.44l.38,0a.61.61,0,0,0,.09.2A.31.31,0,0,0,9,15.32Zm0-1.53a.36.36,0,0,0-.14.1.3.3,0,0,0-.05.16.24.24,0,0,0,.05.14A.4.4,0,0,0,9,14.3Zm.21,1.55a.27.27,0,0,0,.18-.1.26.26,0,0,0,.07-.19.27.27,0,0,0-.06-.17.38.38,0,0,0-.19-.1Z" transform="translate(-2.65 -1.41)"/></svg>