<svg xmlns="http://www.w3.org/2000/svg" width="18.679" height="17.54" viewBox="0 0 18.679 17.54">
  <g id="Group_1093" data-name="Group 1093" transform="translate(0)">
    <path id="Path_1" data-name="Path 1" d="M124.6,248.651A8.732,8.732,0,0,0,114,241.784a8.533,8.533,0,0,0-6.432,6.139c-.089.285-.142.58-.218.9-.058-.083-.1-.145-.146-.21a.737.737,0,0,0-.306-.3c-.326-.147-.625-.007-.829.388v.292c.028.052.052.106.085.155.4.6.789,1.2,1.194,1.785a.563.563,0,0,0,.9.057q.714-.7,1.419-1.418a.583.583,0,1,0-.82-.826c-.1.1-.192.221-.287.333-.041-.053-.043-.065-.041-.077a7.582,7.582,0,1,1,5.994,8.758,7.018,7.018,0,0,1-4.437-2.795.586.586,0,1,0-.939.694,6.552,6.552,0,0,0,.629.756,8.321,8.321,0,0,0,8.863,2.222A8.7,8.7,0,0,0,124.6,248.651Z" transform="translate(-106.072 -241.537)" fill="#fff"/>
    <path id="Path_2" data-name="Path 2" d="M292.8,308.143a.584.584,0,1,0-1.166,0q0,2.6,0,5.2a.633.633,0,0,0,.273.544c.45.331.894.669,1.341,1q1.034.776,2.069,1.551a.579.579,0,0,0,.68.051.567.567,0,0,0,.27-.593.674.674,0,0,0-.317-.446q-1.512-1.141-3.023-2.282a.28.28,0,0,1-.128-.255c.006-.8,0-1.592,0-2.388S292.8,308.939,292.8,308.143Z" transform="translate(-282.589 -304.315)" fill="#fff"/>
  </g>
</svg>
