<svg xmlns="http://www.w3.org/2000/svg" width="28.55" height="25.312" viewBox="0 0 28.55 25.312">
  <g id="Group_1714" data-name="Group 1714" transform="translate(-0.291 170.982)">
    <path id="Path_3934" data-name="Path 3934" d="M.291-158.24q2.192-1.924,4.383-3.848,4.988-4.391,9.973-8.786c.107-.095.175-.172.333-.029q6.853,6.224,13.722,12.43c.216.195.152.3,0,.451a1.6,1.6,0,0,1-1.726.368,3.628,3.628,0,0,1-1.369-.778q-5.281-4.735-10.558-9.475c-.171-.154-.261-.162-.445-.006Q9-163.151,3.375-158.407a3.363,3.363,0,0,1-1.6.9,1.5,1.5,0,0,1-1.481-.679Z" transform="translate(0 0)" fill="#fff"/>
    <path id="Path_3935" data-name="Path 3935" d="M16.5-136.567c0-1.778,0-3.556,0-5.334a.488.488,0,0,1,.2-.423q5.1-4.259,10.182-8.533c.15-.126.23-.134.383,0q4.728,4.22,9.472,8.422a.819.819,0,0,1,.306.686c-.011,3.435-.008,6.87-.006,10.3a1.551,1.551,0,0,1-.057.467.628.628,0,0,1-.575.486c-.111.011-.222.021-.334.021-2.2,0-4.394,0-6.59.006-.213,0-.278-.047-.276-.271.013-1.834.013-3.668.016-5.5,0-.723-.316-1.07-1.039-1.083-1-.017-1.992-.013-2.988,0a.764.764,0,0,0-.842.877c-.006,1.9-.013,3.8-.006,5.7,0,.24-.05.311-.3.31-2.253-.01-4.505,0-6.758,0-.576,0-.773-.19-.774-.769Q16.5-133.886,16.5-136.567Z" transform="translate(-12.331 -15.238)" fill="#fff"/>
  </g>
</svg>
