<svg xmlns="http://www.w3.org/2000/svg" width="33.455" height="40.317" viewBox="0 0 33.455 40.317">
  <g id="Group_1474" data-name="Group 1474" transform="translate(-61.178 -58.701)" opacity="0.31">
    <path id="Path_3795" data-name="Path 3795" d="M76.447,92.22c.094-1.359.183-2.719.287-4.078a.5.5,0,0,0-.264-.508,2.422,2.422,0,0,1-1.093-1.908,6.456,6.456,0,0,0,5.066,0A2.327,2.327,0,0,1,79.392,87.6a.634.634,0,0,0-.3.66c.1,1.318.19,2.637.283,3.956.062.041.1.008.139-.041a59.194,59.194,0,0,0,4.566-7.288,3.959,3.959,0,0,0,.508-1.378c.022-.239.2-.151.32-.138a9.737,9.737,0,0,1,3.839,1.19,10.858,10.858,0,0,1,5.879,10.311,4.863,4.863,0,0,1-1.978,4.145,7.852,7.852,0,0,1-3.566,1.193,34.189,34.189,0,0,1-4.682.2c-5.143,0-10.284,0-15.427-.031a13.727,13.727,0,0,1-4.408-.658,4.678,4.678,0,0,1-3.319-4.208A11.032,11.032,0,0,1,70.029,83.5a2.484,2.484,0,0,1,1.037-.119c.351.091.228.562.36.852a42.886,42.886,0,0,0,3.536,5.989c.457.688.933,1.363,1.4,2.044Z" transform="translate(0 -1.39)" fill="#009d3a"/>
    <path id="Path_3796" data-name="Path 3796" d="M87.069,67.708c0,.112.007.226,0,.338-.05.694-.063,1.267.817,1.592a1.936,1.936,0,0,1,1.147,1.84c.03.759.042,1.522,0,2.281a2.443,2.443,0,0,1-2,2.258.987.987,0,0,0-.727.428.181.181,0,0,1-.058.062,4.947,4.947,0,0,0-1.507,2.024,9.354,9.354,0,0,1-2.513,3.092,6.133,6.133,0,0,1-8.455-.469,11.194,11.194,0,0,1-2.829-4.542.655.655,0,0,0-.769-.527,2.5,2.5,0,0,1-2.684-2.538q-.011-.909,0-1.817a2.389,2.389,0,0,1,1.607-2.346.439.439,0,0,0,.309-.5,14.191,14.191,0,0,1,.208-3.616,8.4,8.4,0,0,1,6.42-6.273,9.013,9.013,0,0,1,9.9,3.946A7.942,7.942,0,0,1,87.069,67.708Z" transform="translate(-0.356 0)" fill="#009d3a"/>
    <path id="Path_3797" data-name="Path 3797" d="M84.582,73.61a5.443,5.443,0,0,1,.826-.353,6.856,6.856,0,0,1-.5,3.466.618.618,0,0,1-.291.293,9.675,9.675,0,0,1-4.02,1.3.349.349,0,0,1-.369-.14.4.4,0,0,0-.06-.059,3.834,3.834,0,0,0-3.032-.054,1.154,1.154,0,0,0-.389,1.253,1.1,1.1,0,0,0,1,.785c.591.02,1.183.007,1.775,0a.759.759,0,0,0,.632-.29.912.912,0,0,1,.751-.369,10.8,10.8,0,0,0,2.82-.678,1.053,1.053,0,0,1,.173-.032c-1.947,3.518-6.033,5.035-9.332,1.922A10.854,10.854,0,0,1,71.5,74.58a7.257,7.257,0,0,1-.023-1.139c-.007-.232.1-.221.259-.142.21.1.425.2.668.315-.044-.478-.092-.924-.126-1.371a8.3,8.3,0,0,1,.209-3.015,2.546,2.546,0,0,1,.226-.542c.326-.573.511-.627,1.11-.385a12.592,12.592,0,0,0,4.629,1.027A12.447,12.447,0,0,0,83.163,68.3c.6-.241.78-.192,1.111.383a4.6,4.6,0,0,1,.466,2.123,13.118,13.118,0,0,1-.141,2.484C84.585,73.388,84.587,73.485,84.582,73.61Z" transform="translate(-0.58 -0.534)" fill="#fff"/>
    <path id="Path_3798" data-name="Path 3798" d="M85.311,65.924a8.2,8.2,0,0,0-13.635.008c.153-1.924,2.332-5.065,6.342-5.357C81.417,60.328,84.8,62.753,85.311,65.924Z" transform="translate(-0.592 -0.105)" fill="#fefefe"/>
  </g>
</svg>
