<svg width="25" height="28" viewBox="0 0 25 28" fill="none" xmlns="http://www.w3.org/2000/svg">
<path fill-rule="evenodd" clip-rule="evenodd" d="M12.53 13.531C13.1934 13.5565 13.8347 13.7766 14.3741 14.1638C14.9134 14.551 15.327 15.0882 15.5633 15.7087C15.7996 16.3291 15.8483 17.0054 15.7032 17.6532C15.5581 18.3011 15.2257 18.892 14.7473 19.3524C14.2689 19.8129 13.6657 20.1224 13.0128 20.2426C12.3598 20.3628 11.6859 20.2883 11.075 20.0284C10.464 19.7685 9.94298 19.3347 9.5767 18.781C9.21042 18.2272 9.01508 17.578 9.01498 16.914C9.03546 16.0003 9.41656 15.1317 10.0751 14.4979C10.7336 13.8641 11.6161 13.5165 12.53 13.531ZM12.53 3.38303C11.6165 3.36908 10.7345 3.7169 10.0764 4.35064C9.41828 4.98438 9.03746 5.85263 9.01698 6.76603H16.046C16.0255 5.8521 15.6443 4.9834 14.9855 4.34957C14.3268 3.71574 13.444 3.36828 12.53 3.38303ZM21.317 27.063H3.74498C2.83111 27.0775 1.94861 26.7299 1.29009 26.0961C0.631556 25.4623 0.250464 24.5938 0.22998 23.68L0.22998 10.148C0.250724 9.23446 0.63193 8.36616 1.29043 7.73257C1.94893 7.09899 2.83128 6.75154 3.74498 6.76603H5.50198C5.54269 4.93879 6.30451 3.20184 7.6212 1.93424C8.93788 0.666641 10.7025 -0.0286776 12.53 3.22534e-05C14.3578 -0.0292112 16.1229 0.66587 17.4401 1.93352C18.7572 3.20118 19.5193 4.93844 19.56 6.76603H21.317C22.2303 6.75207 23.1122 7.09976 23.7702 7.73328C24.4283 8.36681 24.8092 9.23481 24.83 10.148V23.68C24.8092 24.5931 24.4284 25.4609 23.7706 26.0944C23.1127 26.7279 22.2312 27.0757 21.318 27.062L21.317 27.063Z" fill="#01A132"/>
</svg>
