<svg id="Layer_1" data-name="Layer 1" xmlns="http://www.w3.org/2000/svg" viewBox="0 0 15.73 3.86"><defs></defs><title>More icon02</title><path class="cls-1" d="M14,6.06A1.93,1.93,0,1,0,15.87,8V8A1.93,1.93,0,0,0,14,6.06Zm0,3.23a1.31,1.31,0,0,1-.23-2.61H14a1.31,1.31,0,0,1,0,2.61Z" transform="translate(-0.14 -6.06)"/><path class="cls-1" d="M8,6.06A1.93,1.93,0,1,0,9.92,8V8A1.93,1.93,0,0,0,8,6.06ZM8,9.29a1.31,1.31,0,0,1-.23-2.61H8A1.31,1.31,0,0,1,8,9.29Z" transform="translate(-0.14 -6.06)"/><path class="cls-1" d="M2.08,6.06A1.93,1.93,0,1,0,4,8V8A1.92,1.92,0,0,0,2.08,6.06Zm0,3.23A1.31,1.31,0,1,1,3.39,8h0A1.31,1.31,0,0,1,2.08,9.29Z" transform="translate(-0.14 -6.06)"/></svg>