<svg xmlns="http://www.w3.org/2000/svg" width="36.039" height="19.609" viewBox="0 0 36.039 19.609">
  <g id="Group_1446" data-name="Group 1446" transform="translate(0.169 -0.41)">
    <g id="Group_1" data-name="Group 1" transform="translate(-0.169 0.41)">
      <rect id="Rectangle_1" data-name="Rectangle 1" width="36.039" height="19.609" fill="#fff"/>
      <path id="Path_1" data-name="Path 1" d="M45.531,13.65H13.072V31.464H47.316V13.65Z" transform="translate(-12.174 -12.753)" fill="#009d3a"/>
    </g>
    <g id="Group_5" data-name="Group 5" transform="translate(8.878 10.823)">
      <g id="Group_2" data-name="Group 2">
        <path id="Path_2" data-name="Path 2" d="M133.677,154.025a.384.384,0,0,0-.314.172c-.148.188-.057.439.287.395.341-.062.354.1.338.219s-.212.182-.324.168l0,.106a.442.442,0,0,0,.409-.2c.165-.236-.1-.435-.257-.429s-.425.072-.4-.113.27-.226.27-.226Z" transform="translate(-133.295 -154.024)" fill="#2d973c" fill-rule="evenodd"/>
      </g>
      <g id="Group_3" data-name="Group 3" transform="translate(0.028 0.061)">
        <path id="Path_3" data-name="Path 3" d="M133.712,154.955l.6.987.053-.032-.592-.99Z" transform="translate(-133.712 -154.919)" fill="#2d973c" fill-rule="evenodd"/>
      </g>
      <g id="Group_4" data-name="Group 4" transform="translate(0.117 0.008)">
        <path id="Path_4" data-name="Path 4" d="M135.026,154.182l.6.987.053-.032-.593-.99Z" transform="translate(-135.026 -154.146)" fill="#2d973c" fill-rule="evenodd"/>
      </g>
    </g>
    <g id="Group_6" data-name="Group 6" transform="translate(5.135 2.215)">
      <path id="Path_5" data-name="Path 5" d="M79.178,28.234a3.189,3.189,0,0,1-1.043.082v-.23h.675a.327.327,0,0,0,.143-.023.1.1,0,0,0,.066-.089.4.4,0,0,0-.005-.08A.064.064,0,0,0,79,27.861a.062.062,0,0,0-.014-.023.442.442,0,0,0-.263-.046h-.061l-.088,0a.885.885,0,0,1-.295-.036.3.3,0,0,1-.2-.311.4.4,0,0,1,.125-.33.532.532,0,0,1,.325-.084h.709v.23h-.666a.277.277,0,0,0-.154.037.159.159,0,0,0-.009.236,1.615,1.615,0,0,0,.479.034l.1,0,.043.005.038.007a.271.271,0,0,1,.082.032l.03.023.039.032a.211.211,0,0,1,.061.114A.959.959,0,0,1,79.3,28,.284.284,0,0,1,79.178,28.234Z" transform="translate(-78.081 -27.032)" fill="#fff18b"/>
      <path id="Path_6" data-name="Path 6" d="M98.376,33.034a.485.485,0,0,1-.35-.121.465.465,0,0,1-.125-.352.474.474,0,0,1,.122-.35,1.263,1.263,0,0,1,.716-.118v.195H98.41a.342.342,0,0,0-.166.03.158.158,0,0,0-.066.148h.561v.2h-.561a.162.162,0,0,0,.064.148,2.15,2.15,0,0,0,.5.027v.195Z" transform="translate(-96.558 -31.749)" fill="#fff18b"/>
      <path id="Path_7" data-name="Path 7" d="M113.244,33.034v-.565a.219.219,0,0,0-.03-.136.806.806,0,0,0-.332-.032v.733h-.246v-.942h.466a.46.46,0,0,1,.289.072q.106.081.105.87Z" transform="translate(-110.293 -31.749)" fill="#fff18b"/>
      <path id="Path_8" data-name="Path 8" d="M127.909,28.317h-.073l-.025,0-.016,0a.342.342,0,0,1-.088-.027l-.053-.027-.03-.02a.485.485,0,0,1-.175-.364,1.011,1.011,0,0,1,.016-.184.307.307,0,0,1,.068-.145.414.414,0,0,1,.173-.136l.025-.009.025-.007.048-.011.045-.005.061,0,.229,0v-.343h.25v1.285Zm.229-.736-.023,0h-.105l-.061,0-.059,0a.11.11,0,0,0-.059.018.563.563,0,0,0-.046.032.181.181,0,0,0-.057.1.75.75,0,0,0-.016.175.194.194,0,0,0,.071.163.379.379,0,0,0,.211.046h.072l.073,0Z" transform="translate(-124.102 -27.032)" fill="#fff18b"/>
      <path id="Path_9" data-name="Path 9" d="M153.459,28.317l-.55-.97.011.97h-.277V27.032h.343l.523.925-.011-.925h.272v1.285Z" transform="translate(-147.588 -27.032)" fill="#fff18b"/>
      <path id="Path_10" data-name="Path 10" d="M172.692,32.645a.545.545,0,0,1-.722,0,.521.521,0,0,1,0-.709.5.5,0,0,1,.161-.1.541.541,0,0,1,.2-.034.492.492,0,0,1,.361.134.526.526,0,0,1,0,.709Zm-.18-.552a.2.2,0,0,0-.179-.084.226.226,0,0,0-.184.086.32.32,0,0,0-.059.2.325.325,0,0,0,.063.2.208.208,0,0,0,.177.084.222.222,0,0,0,.18-.086.313.313,0,0,0,.061-.2A.335.335,0,0,0,172.512,32.093Z" transform="translate(-165.476 -31.479)" fill="#fff18b"/>
      <path id="Path_11" data-name="Path 11" d="M188.145,33.034h-.282l-.205-.641-.2.641h-.272l-.329-.942h.259l.205.659.205-.659h.266l.209.659.205-.659h.259Z" transform="translate(-179.484 -31.749)" fill="#fff18b"/>
    </g>
    <g id="Group_7" data-name="Group 7" transform="translate(21.123 16.435)">
      <path id="Path_12" data-name="Path 12" d="M314.806,238.1l-.283-.5h-.315v.5h-.269v-1.28h.726l.05.009.037.005.023,0,.043.011a.267.267,0,0,1,.174.137.46.46,0,0,1,.055.23.393.393,0,0,1-.062.224.315.315,0,0,1-.194.126l.315.536Zm-.071-1.007a.32.32,0,0,0-.2-.043h-.329v.324h.329a.308.308,0,0,0,.194-.043.16.16,0,0,0,.046-.121A.148.148,0,0,0,314.735,237.093Z" transform="translate(-313.939 -236.821)" fill="#fff18b"/>
      <path id="Path_13" data-name="Path 13" d="M332.924,242.8a.483.483,0,0,1-.349-.121.463.463,0,0,1-.125-.351.472.472,0,0,1,.121-.349,1.257,1.257,0,0,1,.714-.117v.194h-.328a.341.341,0,0,0-.165.03.157.157,0,0,0-.066.148h.559v.2h-.559a.161.161,0,0,0,.064.148,2.133,2.133,0,0,0,.495.027v.194Z" transform="translate(-331.196 -241.52)" fill="#fff18b"/>
      <path id="Path_14" data-name="Path 14" d="M346.784,242.8l-.1-.005a.187.187,0,0,1-.039,0l-.055-.014a.373.373,0,0,1-.222-.169.489.489,0,0,1-.077-.267.569.569,0,0,1,.071-.277.324.324,0,0,1,.185-.168,2.814,2.814,0,0,1,.571-.034v.2h-.26a.411.411,0,0,0-.231.046.262.262,0,0,0-.075.221.255.255,0,0,0,.077.214,1.212,1.212,0,0,0,.489.052v.2Z" transform="translate(-344.096 -241.52)" fill="#fff18b"/>
      <path id="Path_15" data-name="Path 15" d="M360.6,242.8a.483.483,0,0,1-.349-.121.463.463,0,0,1-.125-.351.472.472,0,0,1,.121-.349,1.257,1.257,0,0,1,.714-.117v.194h-.327a.341.341,0,0,0-.165.03.157.157,0,0,0-.066.148h.559v.2H360.4a.161.161,0,0,0,.064.148,2.132,2.132,0,0,0,.495.027v.194Z" transform="translate(-356.994 -241.52)" fill="#fff18b"/>
      <path id="Path_16" data-name="Path 16" d="M374.806,237.054v-.233h.256v.233Zm0,1.047v-.938h.256v.938Z" transform="translate(-370.68 -236.821)" fill="#fff18b"/>
      <path id="Path_17" data-name="Path 17" d="M380.9,242.8h-.263l-.4-.938h.274l.262.667.274-.667h.267Z" transform="translate(-375.748 -241.52)" fill="#fff18b"/>
      <path id="Path_18" data-name="Path 18" d="M397.412,242.8a.483.483,0,0,1-.349-.121.463.463,0,0,1-.125-.351.472.472,0,0,1,.121-.349,1.257,1.257,0,0,1,.714-.117v.194h-.328a.341.341,0,0,0-.165.03.157.157,0,0,0-.066.148h.559v.2h-.559a.161.161,0,0,0,.064.148,2.133,2.133,0,0,0,.495.027v.194Z" transform="translate(-391.313 -241.52)" fill="#fff18b"/>
      <path id="Path_19" data-name="Path 19" d="M420.544,238.1l-.548-.967.011.967h-.276v-1.28h.342l.521.922-.011-.922h.271v1.28Z" transform="translate(-412.56 -236.821)" fill="#fff18b"/>
      <path id="Path_20" data-name="Path 20" d="M439.7,242.413a.543.543,0,0,1-.719,0,.519.519,0,0,1,0-.707.5.5,0,0,1,.16-.1.541.541,0,0,1,.2-.034.49.49,0,0,1,.36.133.524.524,0,0,1,0,.707Zm-.18-.55a.2.2,0,0,0-.178-.084.225.225,0,0,0-.183.085.318.318,0,0,0-.059.2.324.324,0,0,0,.062.2.207.207,0,0,0,.176.084.221.221,0,0,0,.18-.085.312.312,0,0,0,.06-.2A.333.333,0,0,0,439.523,241.863Z" transform="translate(-430.378 -241.251)" fill="#fff18b"/>
      <path id="Path_21" data-name="Path 21" d="M455.1,242.8h-.281l-.2-.639-.2.639h-.271l-.327-.938h.258l.2.657.2-.657h.265l.208.657.2-.657h.258Z" transform="translate(-444.333 -241.52)" fill="#fff18b"/>
    </g>
    <g id="Group_10" data-name="Group 10" transform="translate(2.907 4.379)">
      <g id="Group_8" data-name="Group 8">
        <path id="Path_22" data-name="Path 22" d="M48.486,67.212a4.079,4.079,0,1,1,5.095-3.951c0,.026,0,.052,0,.078l.218,0c0-.027,0-.055,0-.083a4.3,4.3,0,1,0-5.367,4.162Z" transform="translate(-45.206 -58.964)" fill="#fff"/>
        <path id="Path_23" data-name="Path 23" d="M54,63.611h0c-.018.037-1.831,3.718-5.43,2.694l-.06.209a4.388,4.388,0,0,0,4.281-1A6.365,6.365,0,0,0,54.2,63.705Z" transform="translate(-48.291 -63.296)" fill="#fff"/>
        <path id="Path_24" data-name="Path 24" d="M59.867,94.615l-7.6,3.732.1.2,7.6-3.733Z" transform="translate(-51.786 -92.199)" fill="#fff"/>
        <path id="Path_25" data-name="Path 25" d="M80.072,65.3l2.806,5.8.2-.094-2.806-5.8Z" transform="translate(-77.708 -64.786)" fill="#fff"/>
        <path id="Path_26" data-name="Path 26" d="M75.057,71.2a4.13,4.13,0,0,0-2.109-3.777,6.734,6.734,0,0,0-2.178-.857L70.7,66.55l-.038.065a6.767,6.767,0,0,0-.763,2.33,4.083,4.083,0,0,0,1.832,4.11l.122-.181c-3.253-2.2-1.1-5.988-1-6.149l-.112.053c.042.007,4.21.765,4.105,4.412Z" transform="translate(-68.183 -66.036)" fill="#fff"/>
      </g>
      <path id="Path_27" data-name="Path 27" d="M106.721,124.076s-1.9-2.877,1.816-4.531c3.5-1.56,2.992-3.547,2.992-3.547s1.795,2.607-.919,4.167-3.7,2.136-3.889,3.91" transform="translate(-102.1 -112.132)" fill="#fff"/>
      <path id="Path_28" data-name="Path 28" d="M87.683,91.761s-2.056-3,1.858-4.805c3.568-1.462,3.172-3.667,3.172-3.667s2.248,2.938-1.808,4.88c-3.518,1.685-3.221,3.592-3.221,3.592" transform="translate(-84.3 -81.64)" fill="#cd081d"/>
      <path id="Path_29" data-name="Path 29" d="M85.118,89.4a.184.184,0,0,1-.153-.08,3.469,3.469,0,0,1-.471-2.661,3.974,3.974,0,0,1,2.4-2.418c3.377-1.384,3.08-3.382,3.066-3.466a.187.187,0,0,1,.109-.2.184.184,0,0,1,.222.057,3.374,3.374,0,0,1,.585,2.619,4.056,4.056,0,0,1-2.46,2.541c-3.329,1.594-3.12,3.379-3.118,3.4a.186.186,0,0,1-.117.2.191.191,0,0,1-.068.013m5.188-8c-.15.811-.791,2.172-3.259,3.184a3.628,3.628,0,0,0-2.193,2.172A2.881,2.881,0,0,0,85,88.57c.2-.744.9-1.985,3.259-3.116a3.716,3.716,0,0,0,2.258-2.289,2.768,2.768,0,0,0-.211-1.769" transform="translate(-81.736 -79.093)" fill="#fff"/>
      <path id="Path_30" data-name="Path 30" d="M87.683,91.761s-2.056-3,1.858-4.805c3.568-1.462,3.172-3.667,3.172-3.667s2.248,2.938-1.808,4.88c-3.518,1.685-3.221,3.592-3.221,3.592" transform="translate(-84.3 -81.64)" fill="#cd081d"/>
      <path id="Path_31" data-name="Path 31" d="M126.248,133.447s-.842-.118-.742.681l.787-.459,0,.155-.75.419a1.408,1.408,0,0,0,.069.125l.717-.426-.01.158-.615.355a.438.438,0,0,0,.2.114.6.6,0,0,0,.754-.441l.086.145a.792.792,0,0,1-.725.465.625.625,0,0,1-.438-.219l-.214.136.009-.168.112-.078-.071-.1-.179.12,0-.164.135-.076a.7.7,0,0,1,.274-.755.732.732,0,0,1,.608-.105Z" transform="translate(-119.81 -128.27)" fill="#fff" fill-rule="evenodd"/>
      <g id="Group_9" data-name="Group 9" transform="translate(6.784 7.127)">
        <path id="Path_32" data-name="Path 32" d="M145.788,164.1a.511.511,0,0,0-.416.224c-.2.246-.076.572.38.515.452-.081.469.134.447.286s-.281.237-.429.22l0,.139a.59.59,0,0,0,.541-.26c.219-.308-.134-.568-.34-.559s-.564.094-.524-.147.358-.3.358-.3Z" transform="translate(-145.281 -164.103)" fill="#2c953a" fill-rule="evenodd"/>
        <path id="Path_33" data-name="Path 33" d="M145.834,165.315l.794,1.286.07-.042-.785-1.291Z" transform="translate(-145.797 -165.19)" fill="#2c953a" fill-rule="evenodd"/>
        <path id="Path_34" data-name="Path 34" d="M147.575,164.309l.794,1.287.07-.042-.785-1.291Z" transform="translate(-147.419 -164.252)" fill="#2c953a" fill-rule="evenodd"/>
      </g>
    </g>
    <g id="Group_11" data-name="Group 11" transform="translate(14.647 4.688)">
      <path id="Path_35" data-name="Path 35" d="M222.561,70.052l-2.8-4.937.055,4.937h-1.409V63.515h1.746l2.664,4.709-.055-4.709h1.382v6.537Z" transform="translate(-218.406 -63.515)" fill="#fff"/>
      <path id="Path_36" data-name="Path 36" d="M324.274,70.052l-.582-.027-.209-.009a.668.668,0,0,1-.173-.027.245.245,0,0,1-.073-.027.561.561,0,0,1-.082-.018,2.314,2.314,0,0,1-1.491-1.155,2.924,2.924,0,0,1-.327-.8,3.163,3.163,0,0,1-.118-.882,6.746,6.746,0,0,1,.145-1.518,2.9,2.9,0,0,1,.491-1.1,2.085,2.085,0,0,1,1-.745,4.342,4.342,0,0,1,.7-.173q.4-.055,3.028-.055v1.136h-2.255a1.358,1.358,0,0,0-1.546,1.527v1.136a2.839,2.839,0,0,0,.064.655,1.293,1.293,0,0,0,.082.273,1,1,0,0,0,.155.227l.245.236a.931.931,0,0,0,.291.145,1.174,1.174,0,0,0,.336.055l2.628.009v1.136Z" transform="translate(-314.25 -63.515)" fill="#fff"/>
      <path id="Path_37" data-name="Path 37" d="M410.042,70.052l-.582-.027-.209-.009a.669.669,0,0,1-.173-.027.244.244,0,0,1-.073-.027.561.561,0,0,1-.082-.018,2.314,2.314,0,0,1-1.491-1.155,3.324,3.324,0,0,1-.445-1.673,6.8,6.8,0,0,1,.145-1.527,2.894,2.894,0,0,1,.491-1.1,2.085,2.085,0,0,1,1-.745,4.377,4.377,0,0,1,.7-.173q.382-.055,3.028-.055v1.118H410.1a1.474,1.474,0,0,0-1.046.364,1.73,1.73,0,0,0-.436.846A5.136,5.136,0,0,0,408.487,67a3.343,3.343,0,0,0,.164,1.109,1.142,1.142,0,0,0,.764.755l.145.036.164.009,2.627.009v1.136Z" transform="translate(-394.204 -63.515)" fill="#fff"/>
      <path id="Path_38" data-name="Path 38" d="M309.877,101.956l-.19.471h5.228l.19-.471Z" transform="translate(-303.499 -99.35)" fill="#fff"/>
      <path id="Path_39" data-name="Path 39" d="M308.554,115.033h4.829l.19-.471h-4.829Z" transform="translate(-302.443 -111.102)" fill="#fff"/>
    </g>
    <path id="Path_40" data-name="Path 40" d="M426.641,168.838v-1.62l-1.458-2.169h1.364l.684,1.06.687-1.06h1.4l-1.481,2.169v1.619Z" transform="translate(-396.519 -153.48)" fill="#fff"/>
    <path id="Path_41" data-name="Path 41" d="M434.377,168.663l-.821,1.266-.817-1.266h-.771l1.243,1.849v1.45h.7v-1.45l1.262-1.849Z" transform="translate(-402.845 -156.848)" fill="#cd081d"/>
    <path id="Path_42" data-name="Path 42" d="M392.1,168.878l-.412-.018a.556.556,0,0,1-.139-.022l-.047-.015-.032-.008a1.409,1.409,0,0,1-.9-.7,1.724,1.724,0,0,1-.19-.466,1.836,1.836,0,0,1-.067-.5,3.656,3.656,0,0,1,.08-.822,1.71,1.71,0,0,1,.29-.645,1.3,1.3,0,0,1,.62-.461,2.389,2.389,0,0,1,.39-.1,6.347,6.347,0,0,1,.685-.027l.132,0,.713,1.06h-1.1c-.287,0-.444.082-.5.281h1.791l.5.743v.32h-2.3l.006.028a.466.466,0,0,0,.028.1h0a.415.415,0,0,0,.032.044l.1.1a.26.26,0,0,0,.063.028.345.345,0,0,0,.1.016l.5,0,1.472,0v1.064Z" transform="translate(-364.018 -153.519)" fill="#fff"/>
    <path id="Path_43" data-name="Path 43" d="M395.815,170.069h-1.093a.685.685,0,0,1,.78-.771h.637l-.324-.482-.059-.087q-.523.007-.645.023a2.193,2.193,0,0,0-.353.087,1.052,1.052,0,0,0-.5.376,1.46,1.46,0,0,0-.248.555,3.4,3.4,0,0,0-.073.766,1.6,1.6,0,0,0,.06.445,1.475,1.475,0,0,0,.165.4,1.168,1.168,0,0,0,.752.583.29.29,0,0,0,.041.009.122.122,0,0,0,.037.014.337.337,0,0,0,.087.014l.106,0,.294.014h1.568v-.574l-1.227,0-.5,0a.593.593,0,0,1-.17-.028.471.471,0,0,1-.147-.073l-.124-.119a.5.5,0,0,1-.078-.115.649.649,0,0,1-.041-.138,1.435,1.435,0,0,1-.032-.33h2.321l-.385-.572Z" transform="translate(-367.387 -156.91)" fill="#cd081d"/>
    <path id="Path_44" data-name="Path 44" d="M221.424,168.838l.025-1.166-.382,1.166h-1.093l-.394-1.182.033,1.182h-1.208V165.05h1.441l.659,1.994.662-1.994H222.6v3.789Z" transform="translate(-203.759 -153.48)" fill="#fff"/>
    <path id="Path_45" data-name="Path 45" d="M223.873,171.191l-.835-2.528H222.02v3.3h.711l-.073-2.588.863,2.588h.739l.84-2.565-.055,2.565h.684v-3.3h-1.014Z" transform="translate(-207.128 -156.848)" fill="#cd081d"/>
    <path id="Path_46" data-name="Path 46" d="M341.564,168.838l-1.015-1.789.02,1.789h-1.2V165.05h1.269l.945,1.671-.019-1.671h1.19v3.789Z" transform="translate(-316.518 -153.48)" fill="#fff"/>
    <path id="Path_47" data-name="Path 47" d="M345.176,168.663l.028,2.377-1.344-2.377h-.881v3.3h.711l-.027-2.491,1.413,2.491h.8v-3.3Z" transform="translate(-319.887 -156.848)" fill="#cd081d"/>
    <g id="Group_14" data-name="Group 14" transform="translate(18.939 11.559)">
      <g id="Group_12" data-name="Group 12">
        <path id="Path_48" data-name="Path 48" d="M286.683,168.387a1.665,1.665,0,1,0,1.709,1.7A1.548,1.548,0,0,0,286.683,168.387Zm.023,2.737c-.528,0-.816-.471-.816-1s.148-1.125.862-1.125c.6,0,.769.593.769,1.118S287.234,171.124,286.706,171.124Z" transform="translate(-284.804 -168.15)" fill="#ce041d"/>
        <path id="Path_49" data-name="Path 49" d="M283.6,168.69a1.861,1.861,0,0,1-1.334-.5,1.888,1.888,0,0,1-.537-1.36,1.952,1.952,0,0,1,.478-1.392,1.848,1.848,0,0,1,1.4-.552,1.965,1.965,0,0,1,1.392.493,1.931,1.931,0,0,1,.541,1.44A1.769,1.769,0,0,1,283.6,168.69Zm.008-3.329a1.426,1.426,0,0,0-1.081.41,1.475,1.475,0,0,0-.35,1.051,1.32,1.32,0,0,0,1.423,1.393,1.429,1.429,0,1,0,.008-2.855Zm.023,2.737a1.115,1.115,0,0,1-1.04-1.241c0-1.185.681-1.362,1.086-1.362.612,0,.993.519.993,1.355A1.127,1.127,0,0,1,283.628,168.1Zm.047-2.129c-.3,0-.639.1-.639.888,0,.381.183.766.592.766s.592-.4.592-.774C284.22,166.521,284.149,165.969,283.675,165.969Z" transform="translate(-281.726 -164.886)" fill="#fff"/>
      </g>
      <g id="Group_13" data-name="Group 13" transform="translate(0.224 0.237)">
        <path id="Path_50" data-name="Path 50" d="M286.683,168.387a1.665,1.665,0,1,0,1.709,1.7A1.548,1.548,0,0,0,286.683,168.387Zm.023,2.737c-.528,0-.816-.471-.816-1s.148-1.125.862-1.125c.6,0,.769.593.769,1.118S287.234,171.124,286.706,171.124Z" transform="translate(-285.028 -168.387)" fill="#ce041d"/>
      </g>
    </g>
  </g>
</svg>
