<svg xmlns="http://www.w3.org/2000/svg" width="22.923" height="22.812" viewBox="0 0 22.923 22.812">
  <g id="Group_1469" data-name="Group 1469" transform="translate(-24.011 -30.444)">
    <path id="Path_3782" data-name="Path 3782" d="M24.013,48.246a2.049,2.049,0,0,1,.561-1.519c.436-.451.876-.9,1.328-1.333a.553.553,0,0,1,.913.085c1.033,1.5,2.055,3.007,3.081,4.512a.55.55,0,0,1-.074.74,1.584,1.584,0,0,0-.057,2.313,26.471,26.471,0,0,0,5.612,5.589,1.585,1.585,0,0,0,2.079-.069c.406-.359.553-.373.991-.075q2.141,1.458,4.278,2.921a.6.6,0,0,1,.095,1.055c-.357.362-.722.717-1.078,1.081a2.179,2.179,0,0,1-2.463.57,24.69,24.69,0,0,1-14.4-13.332c-.271-.615-.5-1.25-.741-1.878A1.689,1.689,0,0,1,24.013,48.246Z" transform="translate(0 -11.02)" fill="#fff"/>
    <path id="Path_3783" data-name="Path 3783" d="M59.874,30.449A13.356,13.356,0,0,1,72.306,41.082a11.961,11.961,0,0,1,.219,2.821c-.02.514-.3.807-.75.794a.7.7,0,0,1-.686-.816,11.881,11.881,0,0,0-8.345-11.508,10.271,10.271,0,0,0-3.6-.489c-.516.026-.846-.236-.87-.671s.263-.728.784-.76C59.329,30.436,59.6,30.449,59.874,30.449Z" transform="translate(-25.6 0)" fill="#fff"/>
    <path id="Path_3784" data-name="Path 3784" d="M73.935,55.079a.733.733,0,0,1-.642.761.7.7,0,0,1-.781-.61,7.248,7.248,0,0,0-2.749-4.416,6.844,6.844,0,0,0-3.032-1.385.705.705,0,0,1-.625-.832.722.722,0,0,1,.866-.587A8.762,8.762,0,0,1,73.9,54.9C73.915,54.972,73.928,55.042,73.935,55.079Z" transform="translate(-31.445 -13.117)" fill="#fff"/>
    <path id="Path_3785" data-name="Path 3785" d="M40.727,43.15a2.017,2.017,0,0,1-.492,1.282c-.182.21-.343.211-.509-.032q-1.9-2.783-3.8-5.559a.34.34,0,0,1,.061-.523c.1-.083.184-.184.278-.274a.911.911,0,0,1,1.464.129c.618.88,1.217,1.773,1.824,2.661.274.4.548.8.82,1.2A2.066,2.066,0,0,1,40.727,43.15Z" transform="translate(-8.832 -5.448)" fill="#fff"/>
    <path id="Path_3786" data-name="Path 3786" d="M81.3,89.544a1.821,1.821,0,0,1,1.125.351c1.269.865,2.541,1.727,3.805,2.6a.912.912,0,0,1,.133,1.53c-.554.56-.414.533-1.055.1q-2.58-1.754-5.153-3.517c-.383-.261-.39-.413-.018-.682A1.831,1.831,0,0,1,81.3,89.544Z" transform="translate(-41.732 -44.159)" fill="#fff"/>
  </g>
</svg>
