<svg xmlns="http://www.w3.org/2000/svg" width="29.565" height="19.204" viewBox="0 0 29.565 19.204">
  <g id="Group_1239" data-name="Group 1239" transform="translate(-40.316 -38.902)">
    <path id="Path_3588" data-name="Path 3588" d="M55.048,58.106H41.975c-1.184,0-1.658-.474-1.658-1.659q0-7.958,0-15.914c0-1.151.48-1.63,1.634-1.63h26.3c1.152,0,1.633.48,1.633,1.633q0,7.982,0,15.964c0,1.117-.489,1.606-1.61,1.606Q61.66,58.108,55.048,58.106Z" fill="#0b0b0c"/>
    <path id="Path_3589" data-name="Path 3589" d="M55.325,39.943H68.351c.72,0,.841.115.841.837q0,7.909,0,15.817c0,.715-.122.836-.846.836l-26.1,0c-.755,0-.867-.11-.867-.863q0-7.908,0-15.817c0-.682.128-.809.82-.809Q48.762,39.941,55.325,39.943Z" transform="translate(-0.187 -0.183)" fill="#fff"/>
    <path id="Path_3590" data-name="Path 3590" d="M44.786,46.474a3.052,3.052,0,1,1,3.042,3.081A3.032,3.032,0,0,1,44.786,46.474Z" transform="translate(-0.786 -0.799)" fill="#0b0c0c"/>
    <path id="Path_3591" data-name="Path 3591" d="M47.3,51.395a5.1,5.1,0,0,1,5.089,3.59,3.709,3.709,0,0,1,.157,1.08c-.007.269-.132.459-.406.474a.427.427,0,0,1-.483-.452A3.729,3.729,0,0,0,48.778,52.5a4.363,4.363,0,0,0-4.7,1.184,3.457,3.457,0,0,0-.972,2.289c-.018.325-.1.582-.47.561s-.415-.31-.407-.619A4.873,4.873,0,0,1,46.293,51.5,3.629,3.629,0,0,1,47.3,51.395Z" transform="translate(-0.335 -2.195)" fill="#0b0c0c"/>
    <path id="Path_3592" data-name="Path 3592" d="M64.488,48.128h5.134a2.056,2.056,0,0,1,.4.015.406.406,0,0,1,.358.415.423.423,0,0,1-.34.435,1.311,1.311,0,0,1-.347.017H59.173c-.066,0-.133,0-.2,0-.287,0-.5-.123-.5-.431s.19-.44.482-.448c.1,0,.2,0,.3,0Z" transform="translate(-3.193 -1.622)" fill="#0e0e0f"/>
    <path id="Path_3593" data-name="Path 3593" d="M64.4,52.789q-2.642,0-5.284,0c-.22,0-.441.009-.583-.2a.418.418,0,0,1-.028-.429c.11-.228.321-.256.549-.255,1.164,0,2.327,0,3.489,0h7.128c.231,0,.471-.032.627.207a.4.4,0,0,1,.034.422.5.5,0,0,1-.5.255c-1.213,0-2.426,0-3.639,0Z" transform="translate(-3.191 -2.287)" fill="#0e0f0f"/>
    <path id="Path_3594" data-name="Path 3594" d="M64.412,44.342q2.642,0,5.284,0c.334,0,.688.008.675.451s-.367.443-.7.443q-5.259,0-10.518,0c-.334,0-.673-.021-.673-.465,0-.378.286-.429.6-.429Q61.745,44.345,64.412,44.342Z" transform="translate(-3.194 -0.956)" fill="#0e0f0f"/>
    <path id="Path_3595" data-name="Path 3595" d="M64.424,56.574q-2.642,0-5.284,0c-.313,0-.647,0-.661-.415-.016-.438.321-.478.66-.478q5.284,0,10.568,0c.342,0,.677.048.663.478-.013.405-.345.417-.662.416Q67.067,56.57,64.424,56.574Z" transform="translate(-3.194 -2.951)" fill="#0e0f10"/>
    <path id="Path_3596" data-name="Path 3596" d="M50.19,46.693A2.182,2.182,0,0,1,48,48.877a2.185,2.185,0,0,1,0-4.37A2.177,2.177,0,0,1,50.19,46.693Z" transform="translate(-0.97 -0.986)" fill="#fff"/>
  </g>
</svg>
