<svg id="Layer_1" data-name="Layer 1" xmlns="http://www.w3.org/2000/svg" viewBox="0 0 35.75 35.75"><defs><style>.cls-1{fill:#059d49;}.cls-2{fill:#fff;}</style></defs><title>Hight rate icon</title><path class="cls-1" d="M59.49,45H44V42.67H59.49a.65.65,0,0,1,.65.65v1A.65.65,0,0,1,59.49,45Zm-15.4-.07h15.4a.57.57,0,0,0,.57-.57v-1a.56.56,0,0,0-.57-.57H44.09Z" transform="translate(-24.39 -14.79)"/><path class="cls-1" d="M49.41,45H42.69a.29.29,0,0,1-.28-.28V43a.29.29,0,0,1,.28-.29h6.72a.36.36,0,0,1,.36.36V44.6A.36.36,0,0,1,49.41,45Zm-6.72-2.2a.21.21,0,0,0-.21.21v1.71a.22.22,0,0,0,.21.21h6.72a.28.28,0,0,0,.28-.28V43a.27.27,0,0,0-.28-.28Z" transform="translate(-24.39 -14.79)"/><path class="cls-1" d="M59.49,47.15H44V44.87H59.49a.65.65,0,0,1,.65.65v1A.65.65,0,0,1,59.49,47.15Zm-15.4-.08h15.4a.56.56,0,0,0,.57-.57v-1a.56.56,0,0,0-.57-.57H44.09Z" transform="translate(-24.39 -14.79)"/><path class="cls-1" d="M53.08,47.15H42.69a.29.29,0,0,1-.28-.28V45.15a.29.29,0,0,1,.28-.28H53.08a.36.36,0,0,1,.36.36v1.56A.36.36,0,0,1,53.08,47.15ZM42.69,45a.21.21,0,0,0-.21.2v1.72a.21.21,0,0,0,.21.2H53.08a.28.28,0,0,0,.28-.28V45.23a.28.28,0,0,0-.28-.28Z" transform="translate(-24.39 -14.79)"/><path class="cls-1" d="M59.49,49.35H42.19V47.07h17.3a.65.65,0,0,1,.65.65v1A.65.65,0,0,1,59.49,49.35Zm-17.22-.08H59.49a.56.56,0,0,0,.57-.57v-1a.57.57,0,0,0-.57-.58H42.27Z" transform="translate(-24.39 -14.79)"/><path class="cls-1" d="M56.39,49.35H42.69a.29.29,0,0,1-.28-.29V47.35a.29.29,0,0,1,.28-.28h13.7a.36.36,0,0,1,.36.36V49A.36.36,0,0,1,56.39,49.35Zm-13.7-2.21a.22.22,0,0,0-.21.21v1.71a.21.21,0,0,0,.21.21h13.7a.28.28,0,0,0,.29-.28V47.43a.29.29,0,0,0-.29-.29Z" transform="translate(-24.39 -14.79)"/><path class="cls-1" d="M49.26,49.35H42.69a.29.29,0,0,1-.28-.29V47.35a.29.29,0,0,1,.28-.28h6.57a.36.36,0,0,1,.36.36V49A.36.36,0,0,1,49.26,49.35Zm-6.57-2.21a.22.22,0,0,0-.21.21v1.71a.21.21,0,0,0,.21.21h6.57a.27.27,0,0,0,.28-.28V47.43a.28.28,0,0,0-.28-.29Z" transform="translate(-24.39 -14.79)"/><path class="cls-1" d="M55.27,42.75h-3.7V25h3.7Zm-3.6-.1h3.5V25.11h-3.5Z" transform="translate(-24.39 -14.79)"/><path class="cls-1" d="M51.68,42.75H48v-14h3.7Zm-3.6-.1h3.5V28.84h-3.5Z" transform="translate(-24.39 -14.79)"/><path class="cls-1" d="M48.08,42.75H44.39V32.4h3.69Zm-3.59-.1H48V32.5H44.49Z" transform="translate(-24.39 -14.79)"/><path class="cls-1" d="M44.49,42.75H40.65V35.38h3.84Zm-3.74-.1h3.64V35.48H40.75Z" transform="translate(-24.39 -14.79)"/><path class="cls-1" d="M40.75,42.75h-3.7V33.56h3.7Zm-3.6-.1h3.5v-9h-3.5Z" transform="translate(-24.39 -14.79)"/><path class="cls-1" d="M37.15,42.75H33.46v-11h3.69Zm-3.59-.1h3.49V31.85H33.56Z" transform="translate(-24.39 -14.79)"/><path class="cls-1" d="M33.56,42.75h-3.7V35.41h3.7Zm-3.6-.1h3.5V35.51H30Z" transform="translate(-24.39 -14.79)"/><path class="cls-1" d="M27.47,28.71l1.83,1.83,7.86-7.79,6.62,7.19L54.74,19l-.07,1.2H57l0-5.43-5.33.1-.1,2.4h1.27l-9.23,9.12s-6.49-7.33-6.59-7.33S27.47,28.71,27.47,28.71Z" transform="translate(-24.39 -14.79)"/><circle class="cls-1" cx="6.05" cy="29.71" r="6.05"/><circle class="cls-2" cx="6.05" cy="29.71" r="4.82"/><circle class="cls-1" cx="14.57" cy="29.71" r="6.05"/><circle class="cls-2" cx="14.57" cy="29.71" r="4.82"/><path class="cls-1" d="M31.71,45.7l.35.78a2.15,2.15,0,0,1-.43.16,2,2,0,0,1-.47.07,3.07,3.07,0,0,1-.78-.14,2.7,2.7,0,0,0-.73-.14,1.44,1.44,0,0,0-.81.28l-.35-.79a1.63,1.63,0,0,0,.53-.56,1.18,1.18,0,0,0,.16-.57,1.28,1.28,0,0,0,0-.19h-.68v-.72H29a2.55,2.55,0,0,1-.13-.78,1.36,1.36,0,0,1,.19-.67,1.24,1.24,0,0,1,.55-.49,1.71,1.71,0,0,1,.78-.17,1.54,1.54,0,0,1,1,.32,1.44,1.44,0,0,1,.47.93l-.88.13a.87.87,0,0,0-.23-.5.58.58,0,0,0-.41-.15.61.61,0,0,0-.43.17.62.62,0,0,0-.17.44,1.38,1.38,0,0,0,0,.36,3.44,3.44,0,0,0,.11.41h1v.72h-.87a.76.76,0,0,1,0,.15,1,1,0,0,1-.1.47,2.52,2.52,0,0,1-.4.58,1,1,0,0,1,.45-.09h.21l.26.06a2.61,2.61,0,0,0,.54.1A1.81,1.81,0,0,0,31.71,45.7Z" transform="translate(-24.39 -14.79)"/><path class="cls-1" d="M38.66,45.92V44.56a1.83,1.83,0,0,1-.94-.56,1.36,1.36,0,0,1-.3-.9,1.24,1.24,0,0,1,.34-.89,1.28,1.28,0,0,1,.9-.42v-.33h.47v.33a1.3,1.3,0,0,1,1.22,1.13l-.83.11a.65.65,0,0,0-.39-.52v1.27a2.16,2.16,0,0,1,1.07.55,1.37,1.37,0,0,1,.28.87,1.44,1.44,0,0,1-.36,1,1.57,1.57,0,0,1-1,.5v.61h-.47v-.59a1.5,1.5,0,0,1-.92-.43,1.64,1.64,0,0,1-.45-1l.85-.09a1.15,1.15,0,0,0,.2.45A.81.81,0,0,0,38.66,45.92Zm0-3.42a.63.63,0,0,0-.31.22.54.54,0,0,0-.11.35.55.55,0,0,0,.1.32.68.68,0,0,0,.32.24ZM39.13,46a.71.71,0,0,0,.4-.23.64.64,0,0,0,.15-.42.55.55,0,0,0-.13-.38.74.74,0,0,0-.42-.24Z" transform="translate(-24.39 -14.79)"/></svg>