<svg xmlns="http://www.w3.org/2000/svg" width="40.895" height="44.981" viewBox="0 0 40.895 44.981">
  <g id="Group_1853" data-name="Group 1853" transform="translate(-177.394 -307.061)">
    <path id="Path_4014" data-name="Path 4014" d="M197.834,307.062q4.831,0,9.662,0a3.547,3.547,0,0,1,3.564,2.442,7.833,7.833,0,0,0,4.761,4.81,3.532,3.532,0,0,1,2.466,3.638,70.135,70.135,0,0,1-.3,9.115,31.709,31.709,0,0,1-18.374,24.565,3.93,3.93,0,0,1-3.531-.019q-15.22-7.291-18.237-23.888a52.726,52.726,0,0,1-.392-10.159,3.351,3.351,0,0,1,2.4-3.226,7.961,7.961,0,0,0,4.8-4.782,3.528,3.528,0,0,1,3.694-2.5Z" transform="translate(0)" fill="#00ab4e"/>
    <path id="Path_4015" data-name="Path 4015" d="M252.436,377.584a22.862,22.862,0,0,1-4.023-.171,5.842,5.842,0,0,1-4.453-5.6c-.018-2.519-.011-5.038,0-7.556a3.026,3.026,0,0,1,2.579-3.241c.564-.119.66-.358.661-.868a27.652,27.652,0,0,1,.08-3.772,5.492,5.492,0,0,1,10.924.674c.008,1.084.019,2.168-.006,3.251-.009.414.086.574.537.673a3.165,3.165,0,0,1,2.761,3.482,73.117,73.117,0,0,1-.135,8.247,5.79,5.79,0,0,1-5.585,4.877C254.749,377.592,253.723,377.584,252.436,377.584Z" transform="translate(-54.849 -36.772)" fill="#f5f9fb"/>
    <path id="Path_4016" data-name="Path 4016" d="M265.046,419.039c1.7,0,3.4.024,5.1-.011.763-.016,1.043.277,1.034,1.033-.028,2.314.009,4.628-.016,6.942a3.278,3.278,0,0,1-3.482,3.45c-1.845.007-3.691.013-5.536,0a3.186,3.186,0,0,1-3.262-3.268c-.018-2.4.016-4.8-.018-7.206-.011-.756.309-.958,1-.947C261.59,419.058,263.318,419.039,265.046,419.039Z" transform="translate(-67.139 -92.274)" fill="#00ab06"/>
    <path id="Path_4017" data-name="Path 4017" d="M279.432,373.25c-.782-.082-2.046.415-2.6-.183s-.12-1.836-.152-2.793a5.327,5.327,0,0,1,.1-1.392,2.862,2.862,0,0,1,5.651.537c.023,1.08-.024,2.163.021,3.242.023.544-.2.619-.66.6C281.063,373.226,280.332,373.25,279.432,373.25Z" transform="translate(-81.714 -49.114)" fill="#00ab06"/>
    <path id="Path_4018" data-name="Path 4018" d="M288.7,439.648c0,.409.006.818,0,1.226a1.3,1.3,0,0,1-2.577.217,15.4,15.4,0,0,1,0-2.881,1.228,1.228,0,0,1,1.345-1.119,1.3,1.3,0,0,1,1.226,1.331C288.717,438.83,288.7,439.239,288.7,439.648Z" transform="translate(-89.553 -107.16)" fill="#f4f7f9"/>
  </g>
</svg>
