<svg xmlns="http://www.w3.org/2000/svg" width="50.591" height="55.185" viewBox="0 0 50.591 55.185">
  <g id="Group_1854" data-name="Group 1854" transform="translate(-121.97 -229.649)">
    <path id="Path_4019" data-name="Path 4019" d="M141.491,284.834a7.092,7.092,0,0,1-2.009-1.054c-.185-.169-.385-.324-.555-.507a.759.759,0,0,1,0-1.143.745.745,0,0,1,1.14.02,3.139,3.139,0,0,0,2.214,1.067,2.673,2.673,0,0,0,2.564-1.622,2.749,2.749,0,0,0-.559-3.087c-1.711-1.743-3.441-3.466-5.163-5.2-1.013-1.018-2.023-2.04-3.04-3.054a2.782,2.782,0,1,0-3.946,3.907q2.368,2.393,4.749,4.774c.34.34.515.694.205,1.139a.76.76,0,0,1-1.207.135c-1.779-1.776-3.59-3.523-5.293-5.37a4.366,4.366,0,0,1,4.692-6.942.915.915,0,0,0,1.011-.263,2.869,2.869,0,0,0,1.066-2.56c-.055-5.746-.029-11.492-.024-17.239a3.412,3.412,0,0,1,2.972-3.575,2.86,2.86,0,0,1,1.78.26c.376.188.432.084.431-.289q-.015-5.145,0-10.289c0-.466-.009-.936.034-1.4a3.2,3.2,0,0,1,3.044-2.88c.717-.026,1.437-.016,2.155-.005a.806.806,0,1,1,0,1.61c-.664.012-1.329-.01-1.993.007a1.648,1.648,0,0,0-1.624,1.77c.011.2.056.3.272.279a3.1,3.1,0,0,1,.323,0h18.8c.637,0,.672-.041.559-.662a1.649,1.649,0,0,0-1.719-1.387q-4.983-.006-9.966,0c-.727,0-1.111-.479-.9-1.1.149-.431.486-.523.9-.522q3.879.008,7.757,0c.718,0,1.437,0,2.155,0a3.257,3.257,0,0,1,3.414,3.419q.011,2.747,0,5.495c0,.3.057.451.392.544a3.175,3.175,0,0,1,1.547,5.163c-.187.221-.156.313.013.513a3.154,3.154,0,0,1-.022,4.223c-.162.193-.171.271-.007.47a3.144,3.144,0,0,1,0,4.262c-.169.2-.147.281.008.468a3.135,3.135,0,0,1-1.6,5.188c-.356.1-.328.3-.327.551q0,3.5,0,7a3.267,3.267,0,0,1-3.537,3.562c-1.239,0-2.478.012-3.717-.007a.66.66,0,0,0-.675.372,10.75,10.75,0,0,1-9.94,5.649,1.2,1.2,0,0,0-.826.384,1.649,1.649,0,0,0-.6,2.252,4.189,4.189,0,0,1-3.158,5.556c-.1.021-.223-.028-.275.108Z" transform="translate(-6.509)" fill="#00ab4e"/>
    <path id="Path_4020" data-name="Path 4020" d="M125.628,439.374a.818.818,0,0,1,.8.822.784.784,0,0,1-.77.787.806.806,0,0,1-.84-.78A.835.835,0,0,1,125.628,439.374Z" transform="translate(-2.442 -179.521)" fill="#13bb00"/>
    <path id="Path_4021" data-name="Path 4021" d="M306.662,577.727a.822.822,0,0,1,.8.835.808.808,0,0,1-.8.775.852.852,0,0,1-.811-.834A.82.82,0,0,1,306.662,577.727Z" transform="translate(-157.4 -297.949)" fill="#13bb00"/>
    <path id="Path_4022" data-name="Path 4022" d="M462.929,410.043a.805.805,0,1,1-.035,1.61.835.835,0,0,1-.781-.858A.789.789,0,0,1,462.929,410.043Z" transform="translate(-291.156 -154.414)" fill="#13bb00"/>
    <path id="Path_4023" data-name="Path 4023" d="M419.651,296.563a.8.8,0,0,1-.825-.75.82.82,0,0,1,.78-.857.83.83,0,0,1,.83.814A.8.8,0,0,1,419.651,296.563Z" transform="translate(-254.103 -55.901)" fill="#13bb00"/>
    <path id="Path_4024" data-name="Path 4024" d="M439.134,321.074a.805.805,0,1,1-1.61-.053.8.8,0,0,1,.855-.773A.815.815,0,0,1,439.134,321.074Z" transform="translate(-270.109 -77.549)" fill="#13bb00"/>
    <path id="Path_4025" data-name="Path 4025" d="M190.6,272.425a.8.8,0,0,1,.79.78.84.84,0,0,1-.809.83.79.79,0,0,1-.78-.784A.807.807,0,0,1,190.6,272.425Z" transform="translate(-58.062 -36.615)" fill="#13bb00"/>
    <path id="Path_4026" data-name="Path 4026" d="M396.579,273.7a.775.775,0,0,1,.8.766.825.825,0,0,1-.8.838.848.848,0,0,1-.81-.839A.811.811,0,0,1,396.579,273.7Z" transform="translate(-234.366 -37.706)" fill="#13bb00"/>
    <path id="Path_4027" data-name="Path 4027" d="M126.467,377.733a.85.85,0,0,1-.81.835.832.832,0,0,1-.8-.787.807.807,0,0,1,.813-.816A.782.782,0,0,1,126.467,377.733Z" transform="translate(-2.472 -126.1)" fill="#13bb00"/>
    <path id="Path_4028" data-name="Path 4028" d="M452.772,349.329a.808.808,0,0,1-.8.831.845.845,0,0,1-.8-.793.8.8,0,0,1,.82-.813A.767.767,0,0,1,452.772,349.329Z" transform="translate(-281.785 -101.781)" fill="#13bb00"/>
    <path id="Path_4029" data-name="Path 4029" d="M134.412,346.65a.84.84,0,0,1,.781.864.82.82,0,0,1-.9.733.762.762,0,0,1-.706-.844A.806.806,0,0,1,134.412,346.65Z" transform="translate(-9.945 -100.15)" fill="#13bb00"/>
    <path id="Path_4030" data-name="Path 4030" d="M436.466,499.273a.815.815,0,0,1,.781.851.8.8,0,0,1-.813.756.789.789,0,0,1-.786-.784A.827.827,0,0,1,436.466,499.273Z" transform="translate(-268.503 -230.794)" fill="#13bb00"/>
    <path id="Path_4031" data-name="Path 4031" d="M148.346,320.276a.815.815,0,0,1-.8-.779.8.8,0,0,1,.805-.82.776.776,0,0,1,.794.768A.8.8,0,0,1,148.346,320.276Z" transform="translate(-21.889 -76.206)" fill="#13bb00"/>
    <path id="Path_4032" data-name="Path 4032" d="M168.194,294.4a.8.8,0,0,1-.876.751.751.751,0,0,1-.731-.816.8.8,0,0,1,.8-.771A.839.839,0,0,1,168.194,294.4Z" transform="translate(-38.19 -54.712)" fill="#13bb00"/>
    <path id="Path_4033" data-name="Path 4033" d="M123.572,409a.765.765,0,0,1-.829.786.8.8,0,0,1,.022-1.6A.772.772,0,0,1,123.572,409Z" transform="translate(0 -152.827)" fill="#13bb00"/>
    <path id="Path_4034" data-name="Path 4034" d="M367.846,562.136a.8.8,0,0,1-1.6-.061.8.8,0,0,1,.8-.778A.828.828,0,0,1,367.846,562.136Z" transform="translate(-209.096 -283.885)" fill="#13bb00"/>
    <path id="Path_4035" data-name="Path 4035" d="M336.732,573.168a.813.813,0,0,1,.861-.771.779.779,0,0,1,.742.82.791.791,0,0,1-.782.785A.871.871,0,0,1,336.732,573.168Z" transform="translate(-183.832 -293.386)" fill="#13bb00"/>
    <path id="Path_4036" data-name="Path 4036" d="M461.038,379.547a.777.777,0,0,1-.792.77.851.851,0,0,1-.814-.833.841.841,0,0,1,.815-.775A.8.8,0,0,1,461.038,379.547Z" transform="translate(-288.862 -127.593)" fill="#13bb00"/>
    <path id="Path_4037" data-name="Path 4037" d="M451.688,472.2a.822.822,0,0,1-.761.817.844.844,0,0,1-.828-.811.769.769,0,0,1,.755-.8A.806.806,0,0,1,451.688,472.2Z" transform="translate(-280.873 -206.936)" fill="#13bb00"/>
    <path id="Path_4038" data-name="Path 4038" d="M274.455,578.231a.8.8,0,0,1,.834-.734.792.792,0,0,1,.775.845.82.82,0,0,1-.82.759A.894.894,0,0,1,274.455,578.231Z" transform="translate(-130.524 -297.751)" fill="#13bb00"/>
    <path id="Path_4039" data-name="Path 4039" d="M460.5,442.165a.806.806,0,0,1-.784.787.874.874,0,0,1-.806-.844.8.8,0,0,1,1.59.057Z" transform="translate(-288.417 -181.21)" fill="#13bb00"/>
    <path id="Path_4040" data-name="Path 4040" d="M134.293,469.708a.756.756,0,0,1,.759.791.848.848,0,0,1-.826.812.806.806,0,0,1-.756-.813A.78.78,0,0,1,134.293,469.708Z" transform="translate(-9.844 -205.486)" fill="#13bb00"/>
    <path id="Path_4041" data-name="Path 4041" d="M417.316,524.209a.8.8,0,1,1-.039,1.6.8.8,0,0,1,.039-1.6Z" transform="translate(-252.113 -252.139)" fill="#13bb00"/>
    <path id="Path_4042" data-name="Path 4042" d="M393.865,546.678a.8.8,0,1,1,.787-.778A.779.779,0,0,1,393.865,546.678Z" transform="translate(-232.044 -270.003)" fill="#13bb00"/>
    <path id="Path_4043" data-name="Path 4043" d="M230.588,277.33c0-3.5.008-7-.011-10.5,0-.41.107-.5.5-.495q9.48.02,18.959,0c.413,0,.548.089.534.523-.035,1.04-.024,2.083,0,3.124.006.323-.078.421-.411.441a2.94,2.94,0,0,0-2.71,1.961,2.978,2.978,0,0,0,.532,3.262c.181.209.232.31.019.552a3.124,3.124,0,0,0-.017,4.172c.23.262.178.364-.019.592a3.152,3.152,0,0,0-.019,4.1c.2.235.271.357.027.633a2.943,2.943,0,0,0-.514,3.261,2.979,2.979,0,0,0,2.725,1.95c.3.02.393.091.388.4q-.027,1.642,0,3.285c0,.311-.095.393-.4.393q-7.3-.012-14.6,0c-.252,0-.364-.057-.429-.336a9.172,9.172,0,0,0-4.328-6.2c-.27-.157-.229-.373-.229-.6Q230.587,282.582,230.588,277.33Z" transform="translate(-92.966 -31.4)" fill="#fefefe"/>
    <path id="Path_4044" data-name="Path 4044" d="M201.773,367.105a9.159,9.159,0,0,1-3.917,3.539,8.544,8.544,0,0,1-4.435.858,1.872,1.872,0,0,0-1.751.681c-.351.418-.735,1.083-1.186,1.07-.4-.011-.777-.669-1.157-1.05-2.08-2.085-4.151-4.179-6.241-6.253-.267-.265-.306-.429.007-.647a3.851,3.851,0,0,0,1.516-3.629c-.088-5.763-.022-11.529-.044-17.293a1.75,1.75,0,0,1,2.319-1.824,1.59,1.59,0,0,1,1.2,1.7c0,3.125.012,6.25-.007,9.374a1.181,1.181,0,0,0,.756,1.208,7.388,7.388,0,0,1,3.977,5.734,8.716,8.716,0,0,1-1.207,6.4.783.783,0,0,0,.219,1.208.727.727,0,0,0,1.119-.342c.315-.664.785-.76,1.449-.749C196.812,367.129,199.237,367.105,201.773,367.105Z" transform="translate(-52.131 -96.585)" fill="#fefefe"/>
    <path id="Path_4045" data-name="Path 4045" d="M260.834,480.034a10.861,10.861,0,0,0,.459-3.4c-.009-.226.1-.28.289-.267.107.007.215,0,.323,0,4.647,0,9.294.01,13.94-.014.538,0,.675.149.626.654-.046.48.005.969-.014,1.452a1.6,1.6,0,0,1-1.609,1.611q-6.916.018-13.832.005A.89.89,0,0,1,260.834,480.034Z" transform="translate(-118.865 -211.178)" fill="#fefefe"/>
    <path id="Path_4046" data-name="Path 4046" d="M359.543,374.268c-.251,0-.5.012-.754,0a1.476,1.476,0,0,1-1.451-1.385,1.461,1.461,0,0,1,1.255-1.663,5.836,5.836,0,0,1,1.982,0,1.5,1.5,0,0,1,1.227,1.647,1.521,1.521,0,0,1-1.451,1.4c-.269.014-.538,0-.808,0Z" transform="translate(-201.467 -121.109)" fill="#fefefe"/>
    <path id="Path_4047" data-name="Path 4047" d="M359.536,407.182c-.215,0-.431.007-.646,0a1.552,1.552,0,0,1-.086-3.1,11.68,11.68,0,0,1,1.508,0,1.552,1.552,0,0,1-.075,3.1C360,407.188,359.769,407.182,359.536,407.182Z" transform="translate(-201.462 -149.288)" fill="#fefefe"/>
    <path id="Path_4048" data-name="Path 4048" d="M359.6,305.888c.269,0,.539-.018.806,0a1.5,1.5,0,0,1,1.389,1.393,1.547,1.547,0,0,1-1.193,1.632,5.9,5.9,0,0,1-2.14-.008,1.54,1.54,0,0,1,.119-3,8.244,8.244,0,0,1,1.02-.007Z" transform="translate(-201.462 -65.253)" fill="#fefefe"/>
    <path id="Path_4049" data-name="Path 4049" d="M359.566,341.663c-.251,0-.5.011-.754,0a1.483,1.483,0,0,1-1.486-1.517,1.467,1.467,0,0,1,1.443-1.555,12.437,12.437,0,0,1,1.614.005,1.5,1.5,0,0,1,1.42,1.588,1.519,1.519,0,0,1-1.484,1.479C360.069,341.674,359.817,341.663,359.566,341.663Z" transform="translate(-201.461 -93.231)" fill="#fefefe"/>
    <path id="Path_4050" data-name="Path 4050" d="M245.958,291.731a.81.81,0,0,1-.846-.445.787.787,0,0,1,.167-.94q.994-1.023,1.99-2.045,2.649-2.719,5.3-5.44a.8.8,0,0,1,1.141-.191.769.769,0,0,1,.083,1.248c-.464.5-.947.982-1.423,1.47l-5.75,5.9C246.4,291.509,246.191,291.732,245.958,291.731Z" transform="translate(-105.333 -45.246)" fill="#13bb00"/>
    <path id="Path_4051" data-name="Path 4051" d="M249.027,283.316a.99.99,0,0,1-.309.623c-.727.741-1.444,1.493-2.176,2.229-.445.448-.9.477-1.269.112a.827.827,0,0,1,.11-1.23c.745-.773,1.5-1.539,2.248-2.308a.733.733,0,0,1,.884-.172A.853.853,0,0,1,249.027,283.316Z" transform="translate(-105.352 -45.233)" fill="#13bb00"/>
  </g>
</svg>
